<svg width="822" height="121" viewBox="0 0 822 121" fill="none" xmlns="http://www.w3.org/2000/svg">
<path d="M40 20H33C31.8954 20 31 20.8954 31 22V29C31 30.1046 31.8954 31 33 31H40C41.1046 31 42 30.1046 42 29V22C42 20.8954 41.1046 20 40 20Z" fill="#0E4429"/>
<path d="M40 35H33C31.8954 35 31 35.8954 31 37V44C31 45.1046 31.8954 46 33 46H40C41.1046 46 42 45.1046 42 44V37C42 35.8954 41.1046 35 40 35Z" fill="#0E4429"/>
<path d="M40 50H33C31.8954 50 31 50.8954 31 52V59C31 60.1046 31.8954 61 33 61H40C41.1046 61 42 60.1046 42 59V52C42 50.8954 41.1046 50 40 50Z" fill="#0E4429"/>
<path d="M40 65H33C31.8954 65 31 65.8954 31 67V74C31 75.1046 31.8954 76 33 76H40C41.1046 76 42 75.1046 42 74V67C42 65.8954 41.1046 65 40 65Z" fill="#0E4429"/>
<path d="M40 80H33C31.8954 80 31 80.8954 31 82V89C31 90.1046 31.8954 91 33 91H40C41.1046 91 42 90.1046 42 89V82C42 80.8954 41.1046 80 40 80Z" fill="#0E4429"/>
<path d="M40 95H33C31.8954 95 31 95.8954 31 97V104C31 105.105 31.8954 106 33 106H40C41.1046 106 42 105.105 42 104V97C42 95.8954 41.1046 95 40 95Z" fill="#0E4429"/>
<path d="M40 110H33C31.8954 110 31 110.895 31 112V119C31 120.105 31.8954 121 33 121H40C41.1046 121 42 120.105 42 119V112C42 110.895 41.1046 110 40 110Z" fill="#0E4429"/>
<path d="M55 20H48C46.8954 20 46 20.8954 46 22V29C46 30.1046 46.8954 31 48 31H55C56.1046 31 57 30.1046 57 29V22C57 20.8954 56.1046 20 55 20Z" fill="#0E4429"/>
<path d="M55 35H48C46.8954 35 46 35.8954 46 37V44C46 45.1046 46.8954 46 48 46H55C56.1046 46 57 45.1046 57 44V37C57 35.8954 56.1046 35 55 35Z" fill="#0E4429"/>
<path d="M55 50H48C46.8954 50 46 50.8954 46 52V59C46 60.1046 46.8954 61 48 61H55C56.1046 61 57 60.1046 57 59V52C57 50.8954 56.1046 50 55 50Z" fill="#0E4429"/>
<path d="M55 65H48C46.8954 65 46 65.8954 46 67V74C46 75.1046 46.8954 76 48 76H55C56.1046 76 57 75.1046 57 74V67C57 65.8954 56.1046 65 55 65Z" fill="#0E4429"/>
<path d="M55 80H48C46.8954 80 46 80.8954 46 82V89C46 90.1046 46.8954 91 48 91H55C56.1046 91 57 90.1046 57 89V82C57 80.8954 56.1046 80 55 80Z" fill="#0E4429"/>
<path d="M55 95H48C46.8954 95 46 95.8954 46 97V104C46 105.105 46.8954 106 48 106H55C56.1046 106 57 105.105 57 104V97C57 95.8954 56.1046 95 55 95Z" fill="#0E4429"/>
<path d="M55 110H48C46.8954 110 46 110.895 46 112V119C46 120.105 46.8954 121 48 121H55C56.1046 121 57 120.105 57 119V112C57 110.895 56.1046 110 55 110Z" fill="#0E4429"/>
<path d="M70 20H63C61.8954 20 61 20.8954 61 22V29C61 30.1046 61.8954 31 63 31H70C71.1046 31 72 30.1046 72 29V22C72 20.8954 71.1046 20 70 20Z" fill="#0E4429"/>
<path d="M70 35H63C61.8954 35 61 35.8954 61 37V44C61 45.1046 61.8954 46 63 46H70C71.1046 46 72 45.1046 72 44V37C72 35.8954 71.1046 35 70 35Z" fill="#0E4429"/>
<path d="M70 50H63C61.8954 50 61 50.8954 61 52V59C61 60.1046 61.8954 61 63 61H70C71.1046 61 72 60.1046 72 59V52C72 50.8954 71.1046 50 70 50Z" fill="#0E4429"/>
<path d="M70 65H63C61.8954 65 61 65.8954 61 67V74C61 75.1046 61.8954 76 63 76H70C71.1046 76 72 75.1046 72 74V67C72 65.8954 71.1046 65 70 65Z" fill="#0E4429"/>
<path d="M70 80H63C61.8954 80 61 80.8954 61 82V89C61 90.1046 61.8954 91 63 91H70C71.1046 91 72 90.1046 72 89V82C72 80.8954 71.1046 80 70 80Z" fill="#0E4429"/>
<path d="M70 95H63C61.8954 95 61 95.8954 61 97V104C61 105.105 61.8954 106 63 106H70C71.1046 106 72 105.105 72 104V97C72 95.8954 71.1046 95 70 95Z" fill="#0E4429"/>
<path d="M70 95H63C61.8954 95 61 95.8954 61 97V104C61 105.105 61.8954 106 63 106H70C71.1046 106 72 105.105 72 104V97C72 95.8954 71.1046 95 70 95Z" fill="#0E4429"/>
<path d="M70 110H63C61.8954 110 61 110.895 61 112V119C61 120.105 61.8954 121 63 121H70C71.1046 121 72 120.105 72 119V112C72 110.895 71.1046 110 70 110Z" fill="#0E4429"/>
<path d="M85 20H78C76.8954 20 76 20.8954 76 22V29C76 30.1046 76.8954 31 78 31H85C86.1046 31 87 30.1046 87 29V22C87 20.8954 86.1046 20 85 20Z" fill="#0E4429"/>
<path d="M85 35H78C76.8954 35 76 35.8954 76 37V44C76 45.1046 76.8954 46 78 46H85C86.1046 46 87 45.1046 87 44V37C87 35.8954 86.1046 35 85 35Z" fill="#0E4429"/>
<path d="M85 50H78C76.8954 50 76 50.8954 76 52V59C76 60.1046 76.8954 61 78 61H85C86.1046 61 87 60.1046 87 59V52C87 50.8954 86.1046 50 85 50Z" fill="#0E4429"/>
<path d="M85 65H78C76.8954 65 76 65.8954 76 67V74C76 75.1046 76.8954 76 78 76H85C86.1046 76 87 75.1046 87 74V67C87 65.8954 86.1046 65 85 65Z" fill="#0E4429"/>
<path d="M85 80H78C76.8954 80 76 80.8954 76 82V89C76 90.1046 76.8954 91 78 91H85C86.1046 91 87 90.1046 87 89V82C87 80.8954 86.1046 80 85 80Z" fill="#0E4429"/>
<path d="M85 95H78C76.8954 95 76 95.8954 76 97V104C76 105.105 76.8954 106 78 106H85C86.1046 106 87 105.105 87 104V97C87 95.8954 86.1046 95 85 95Z" fill="#0E4429"/>
<path d="M85 110H78C76.8954 110 76 110.895 76 112V119C76 120.105 76.8954 121 78 121H85C86.1046 121 87 120.105 87 119V112C87 110.895 86.1046 110 85 110Z" fill="#0E4429"/>
<path d="M100 20H93C91.8954 20 91 20.8954 91 22V29C91 30.1046 91.8954 31 93 31H100C101.105 31 102 30.1046 102 29V22C102 20.8954 101.105 20 100 20Z" fill="#39D353"/>
<path d="M100 35H93C91.8954 35 91 35.8954 91 37V44C91 45.1046 91.8954 46 93 46H100C101.105 46 102 45.1046 102 44V37C102 35.8954 101.105 35 100 35Z" fill="#39D353"/>
<path d="M100 50H93C91.8954 50 91 50.8954 91 52V59C91 60.1046 91.8954 61 93 61H100C101.105 61 102 60.1046 102 59V52C102 50.8954 101.105 50 100 50Z" fill="#39D353"/>
<path d="M100 65H93C91.8954 65 91 65.8954 91 67V74C91 75.1046 91.8954 76 93 76H100C101.105 76 102 75.1046 102 74V67C102 65.8954 101.105 65 100 65Z" fill="#0E4429"/>
<path d="M100 80H93C91.8954 80 91 80.8954 91 82V89C91 90.1046 91.8954 91 93 91H100C101.105 91 102 90.1046 102 89V82C102 80.8954 101.105 80 100 80Z" fill="#0E4429"/>
<path d="M100 95H93C91.8954 95 91 95.8954 91 97V104C91 105.105 91.8954 106 93 106H100C101.105 106 102 105.105 102 104V97C102 95.8954 101.105 95 100 95Z" fill="#0E4429"/>
<path d="M100 110H93C91.8954 110 91 110.895 91 112V119C91 120.105 91.8954 121 93 121H100C101.105 121 102 120.105 102 119V112C102 110.895 101.105 110 100 110Z" fill="#0E4429"/>
<path d="M115 20H108C106.895 20 106 20.8954 106 22V29C106 30.1046 106.895 31 108 31H115C116.105 31 117 30.1046 117 29V22C117 20.8954 116.105 20 115 20Z" fill="#39D353"/>
<path d="M115 35H108C106.895 35 106 35.8954 106 37V44C106 45.1046 106.895 46 108 46H115C116.105 46 117 45.1046 117 44V37C117 35.8954 116.105 35 115 35Z" fill="#0E4429"/>
<path d="M115 50H108C106.895 50 106 50.8954 106 52V59C106 60.1046 106.895 61 108 61H115C116.105 61 117 60.1046 117 59V52C117 50.8954 116.105 50 115 50Z" fill="#0E4429"/>
<path d="M115 65H108C106.895 65 106 65.8954 106 67V74C106 75.1046 106.895 76 108 76H115C116.105 76 117 75.1046 117 74V67C117 65.8954 116.105 65 115 65Z" fill="#39D353"/>
<path d="M115 80H108C106.895 80 106 80.8954 106 82V89C106 90.1046 106.895 91 108 91H115C116.105 91 117 90.1046 117 89V82C117 80.8954 116.105 80 115 80Z" fill="#0E4429"/>
<path d="M115 95H108C106.895 95 106 95.8954 106 97V104C106 105.105 106.895 106 108 106H115C116.105 106 117 105.105 117 104V97C117 95.8954 116.105 95 115 95Z" fill="#0E4429"/>
<path d="M115 110H108C106.895 110 106 110.895 106 112V119C106 120.105 106.895 121 108 121H115C116.105 121 117 120.105 117 119V112C117 110.895 116.105 110 115 110Z" fill="#39D353"/>
<path d="M130 20H123C121.895 20 121 20.8954 121 22V29C121 30.1046 121.895 31 123 31H130C131.105 31 132 30.1046 132 29V22C132 20.8954 131.105 20 130 20Z" fill="#39D353"/>
<path d="M130 35H123C121.895 35 121 35.8954 121 37V44C121 45.1046 121.895 46 123 46H130C131.105 46 132 45.1046 132 44V37C132 35.8954 131.105 35 130 35Z" fill="#0E4429"/>
<path d="M130 50H123C121.895 50 121 50.8954 121 52V59C121 60.1046 121.895 61 123 61H130C131.105 61 132 60.1046 132 59V52C132 50.8954 131.105 50 130 50Z" fill="#0E4429"/>
<path d="M130 65H123C121.895 65 121 65.8954 121 67V74C121 75.1046 121.895 76 123 76H130C131.105 76 132 75.1046 132 74V67C132 65.8954 131.105 65 130 65Z" fill="#0E4429"/>
<path d="M130 80H123C121.895 80 121 80.8954 121 82V89C121 90.1046 121.895 91 123 91H130C131.105 91 132 90.1046 132 89V82C132 80.8954 131.105 80 130 80Z" fill="#39D353"/>
<path d="M130 95H123C121.895 95 121 95.8954 121 97V104C121 105.105 121.895 106 123 106H130C131.105 106 132 105.105 132 104V97C132 95.8954 131.105 95 130 95Z" fill="#39D353"/>
<path d="M130 110H123C121.895 110 121 110.895 121 112V119C121 120.105 121.895 121 123 121H130C131.105 121 132 120.105 132 119V112C132 110.895 131.105 110 130 110Z" fill="#39D353"/>
<path d="M145 20H138C136.895 20 136 20.8954 136 22V29C136 30.1046 136.895 31 138 31H145C146.105 31 147 30.1046 147 29V22C147 20.8954 146.105 20 145 20Z" fill="#39D353"/>
<path d="M145 35H138C136.895 35 136 35.8954 136 37V44C136 45.1046 136.895 46 138 46H145C146.105 46 147 45.1046 147 44V37C147 35.8954 146.105 35 145 35Z" fill="#0E4429"/>
<path d="M145 50H138C136.895 50 136 50.8954 136 52V59C136 60.1046 136.895 61 138 61H145C146.105 61 147 60.1046 147 59V52C147 50.8954 146.105 50 145 50Z" fill="#0E4429"/>
<path d="M145 65H138C136.895 65 136 65.8954 136 67V74C136 75.1046 136.895 76 138 76H145C146.105 76 147 75.1046 147 74V67C147 65.8954 146.105 65 145 65Z" fill="#39D353"/>
<path d="M145 80H138C136.895 80 136 80.8954 136 82V89C136 90.1046 136.895 91 138 91H145C146.105 91 147 90.1046 147 89V82C147 80.8954 146.105 80 145 80Z" fill="#0E4429"/>
<path d="M145 95H138C136.895 95 136 95.8954 136 97V104C136 105.105 136.895 106 138 106H145C146.105 106 147 105.105 147 104V97C147 95.8954 146.105 95 145 95Z" fill="#0E4429"/>
<path d="M145 110H138C136.895 110 136 110.895 136 112V119C136 120.105 136.895 121 138 121H145C146.105 121 147 120.105 147 119V112C147 110.895 146.105 110 145 110Z" fill="#39D353"/>
<path d="M160 20H153C151.895 20 151 20.8954 151 22V29C151 30.1046 151.895 31 153 31H160C161.105 31 162 30.1046 162 29V22C162 20.8954 161.105 20 160 20Z" fill="#39D353"/>
<path d="M160 35H153C151.895 35 151 35.8954 151 37V44C151 45.1046 151.895 46 153 46H160C161.105 46 162 45.1046 162 44V37C162 35.8954 161.105 35 160 35Z" fill="#39D353"/>
<path d="M160 50H153C151.895 50 151 50.8954 151 52V59C151 60.1046 151.895 61 153 61H160C161.105 61 162 60.1046 162 59V52C162 50.8954 161.105 50 160 50Z" fill="#39D353"/>
<path d="M160 65H153C151.895 65 151 65.8954 151 67V74C151 75.1046 151.895 76 153 76H160C161.105 76 162 75.1046 162 74V67C162 65.8954 161.105 65 160 65Z" fill="#0E4429"/>
<path d="M160 80H153C151.895 80 151 80.8954 151 82V89C151 90.1046 151.895 91 153 91H160C161.105 91 162 90.1046 162 89V82C162 80.8954 161.105 80 160 80Z" fill="#0E4429"/>
<path d="M160 95H153C151.895 95 151 95.8954 151 97V104C151 105.105 151.895 106 153 106H160C161.105 106 162 105.105 162 104V97C162 95.8954 161.105 95 160 95Z" fill="#0E4429"/>
<path d="M160 110H153C151.895 110 151 110.895 151 112V119C151 120.105 151.895 121 153 121H160C161.105 121 162 120.105 162 119V112C162 110.895 161.105 110 160 110Z" fill="#0E4429"/>
<path d="M175 20H168C166.895 20 166 20.8954 166 22V29C166 30.1046 166.895 31 168 31H175C176.105 31 177 30.1046 177 29V22C177 20.8954 176.105 20 175 20Z" fill="#0E4429"/>
<path d="M175 35H168C166.895 35 166 35.8954 166 37V44C166 45.1046 166.895 46 168 46H175C176.105 46 177 45.1046 177 44V37C177 35.8954 176.105 35 175 35Z" fill="#0E4429"/>
<path d="M175 50H168C166.895 50 166 50.8954 166 52V59C166 60.1046 166.895 61 168 61H175C176.105 61 177 60.1046 177 59V52C177 50.8954 176.105 50 175 50Z" fill="#0E4429"/>
<path d="M175 65H168C166.895 65 166 65.8954 166 67V74C166 75.1046 166.895 76 168 76H175C176.105 76 177 75.1046 177 74V67C177 65.8954 176.105 65 175 65Z" fill="#0E4429"/>
<path d="M175 80H168C166.895 80 166 80.8954 166 82V89C166 90.1046 166.895 91 168 91H175C176.105 91 177 90.1046 177 89V82C177 80.8954 176.105 80 175 80Z" fill="#0E4429"/>
<path d="M175 95H168C166.895 95 166 95.8954 166 97V104C166 105.105 166.895 106 168 106H175C176.105 106 177 105.105 177 104V97C177 95.8954 176.105 95 175 95Z" fill="#0E4429"/>
<path d="M175 110H168C166.895 110 166 110.895 166 112V119C166 120.105 166.895 121 168 121H175C176.105 121 177 120.105 177 119V112C177 110.895 176.105 110 175 110Z" fill="#0E4429"/>
<path d="M190 20H183C181.895 20 181 20.8954 181 22V29C181 30.1046 181.895 31 183 31H190C191.105 31 192 30.1046 192 29V22C192 20.8954 191.105 20 190 20Z" fill="#39D353"/>
<path d="M190 35H183C181.895 35 181 35.8954 181 37V44C181 45.1046 181.895 46 183 46H190C191.105 46 192 45.1046 192 44V37C192 35.8954 191.105 35 190 35Z" fill="#0E4429"/>
<path d="M190 50H183C181.895 50 181 50.8954 181 52V59C181 60.1046 181.895 61 183 61H190C191.105 61 192 60.1046 192 59V52C192 50.8954 191.105 50 190 50Z" fill="#0E4429"/>
<path d="M190 65H183C181.895 65 181 65.8954 181 67V74C181 75.1046 181.895 76 183 76H190C191.105 76 192 75.1046 192 74V67C192 65.8954 191.105 65 190 65Z" fill="#0E4429"/>
<path d="M190 80H183C181.895 80 181 80.8954 181 82V89C181 90.1046 181.895 91 183 91H190C191.105 91 192 90.1046 192 89V82C192 80.8954 191.105 80 190 80Z" fill="#0E4429"/>
<path d="M190 95H183C181.895 95 181 95.8954 181 97V104C181 105.105 181.895 106 183 106H190C191.105 106 192 105.105 192 104V97C192 95.8954 191.105 95 190 95Z" fill="#0E4429"/>
<path d="M190 110H183C181.895 110 181 110.895 181 112V119C181 120.105 181.895 121 183 121H190C191.105 121 192 120.105 192 119V112C192 110.895 191.105 110 190 110Z" fill="#0E4429"/>
<path d="M205 20H198C196.895 20 196 20.8954 196 22V29C196 30.1046 196.895 31 198 31H205C206.105 31 207 30.1046 207 29V22C207 20.8954 206.105 20 205 20Z" fill="#39D353"/>
<path d="M205 35H198C196.895 35 196 35.8954 196 37V44C196 45.1046 196.895 46 198 46H205C206.105 46 207 45.1046 207 44V37C207 35.8954 206.105 35 205 35Z" fill="#0E4429"/>
<path d="M205 50H198C196.895 50 196 50.8954 196 52V59C196 60.1046 196.895 61 198 61H205C206.105 61 207 60.1046 207 59V52C207 50.8954 206.105 50 205 50Z" fill="#0E4429"/>
<path d="M205 65H198C196.895 65 196 65.8954 196 67V74C196 75.1046 196.895 76 198 76H205C206.105 76 207 75.1046 207 74V67C207 65.8954 206.105 65 205 65Z" fill="#0E4429"/>
<path d="M205 80H198C196.895 80 196 80.8954 196 82V89C196 90.1046 196.895 91 198 91H205C206.105 91 207 90.1046 207 89V82C207 80.8954 206.105 80 205 80Z" fill="#0E4429"/>
<path d="M205 95H198C196.895 95 196 95.8954 196 97V104C196 105.105 196.895 106 198 106H205C206.105 106 207 105.105 207 104V97C207 95.8954 206.105 95 205 95Z" fill="#0E4429"/>
<path d="M205 110H198C196.895 110 196 110.895 196 112V119C196 120.105 196.895 121 198 121H205C206.105 121 207 120.105 207 119V112C207 110.895 206.105 110 205 110Z" fill="#0E4429"/>
<path d="M220 20H213C211.895 20 211 20.8954 211 22V29C211 30.1046 211.895 31 213 31H220C221.105 31 222 30.1046 222 29V22C222 20.8954 221.105 20 220 20Z" fill="#39D353"/>
<path d="M220 35H213C211.895 35 211 35.8954 211 37V44C211 45.1046 211.895 46 213 46H220C221.105 46 222 45.1046 222 44V37C222 35.8954 221.105 35 220 35Z" fill="#39D353"/>
<path d="M220 50H213C211.895 50 211 50.8954 211 52V59C211 60.1046 211.895 61 213 61H220C221.105 61 222 60.1046 222 59V52C222 50.8954 221.105 50 220 50Z" fill="#39D353"/>
<path d="M220 65H213C211.895 65 211 65.8954 211 67V74C211 75.1046 211.895 76 213 76H220C221.105 76 222 75.1046 222 74V67C222 65.8954 221.105 65 220 65Z" fill="#39D353"/>
<path d="M220 80H213C211.895 80 211 80.8954 211 82V89C211 90.1046 211.895 91 213 91H220C221.105 91 222 90.1046 222 89V82C222 80.8954 221.105 80 220 80Z" fill="#39D353"/>
<path d="M220 95H213C211.895 95 211 95.8954 211 97V104C211 105.105 211.895 106 213 106H220C221.105 106 222 105.105 222 104V97C222 95.8954 221.105 95 220 95Z" fill="#39D353"/>
<path d="M220 110H213C211.895 110 211 110.895 211 112V119C211 120.105 211.895 121 213 121H220C221.105 121 222 120.105 222 119V112C222 110.895 221.105 110 220 110Z" fill="#39D353"/>
<path d="M235 20H228C226.895 20 226 20.8954 226 22V29C226 30.1046 226.895 31 228 31H235C236.105 31 237 30.1046 237 29V22C237 20.8954 236.105 20 235 20Z" fill="#39D353"/>
<path d="M235 35H228C226.895 35 226 35.8954 226 37V44C226 45.1046 226.895 46 228 46H235C236.105 46 237 45.1046 237 44V37C237 35.8954 236.105 35 235 35Z" fill="#0E4429"/>
<path d="M235 50H228C226.895 50 226 50.8954 226 52V59C226 60.1046 226.895 61 228 61H235C236.105 61 237 60.1046 237 59V52C237 50.8954 236.105 50 235 50Z" fill="#0E4429"/>
<path d="M235 65H228C226.895 65 226 65.8954 226 67V74C226 75.1046 226.895 76 228 76H235C236.105 76 237 75.1046 237 74V67C237 65.8954 236.105 65 235 65Z" fill="#0E4429"/>
<path d="M235 80H228C226.895 80 226 80.8954 226 82V89C226 90.1046 226.895 91 228 91H235C236.105 91 237 90.1046 237 89V82C237 80.8954 236.105 80 235 80Z" fill="#0E4429"/>
<path d="M235 95H228C226.895 95 226 95.8954 226 97V104C226 105.105 226.895 106 228 106H235C236.105 106 237 105.105 237 104V97C237 95.8954 236.105 95 235 95Z" fill="#0E4429"/>
<path d="M235 110H228C226.895 110 226 110.895 226 112V119C226 120.105 226.895 121 228 121H235C236.105 121 237 120.105 237 119V112C237 110.895 236.105 110 235 110Z" fill="#0E4429"/>
<path d="M250 20H243C241.895 20 241 20.8954 241 22V29C241 30.1046 241.895 31 243 31H250C251.105 31 252 30.1046 252 29V22C252 20.8954 251.105 20 250 20Z" fill="#39D353"/>
<path d="M250 35H243C241.895 35 241 35.8954 241 37V44C241 45.1046 241.895 46 243 46H250C251.105 46 252 45.1046 252 44V37C252 35.8954 251.105 35 250 35Z" fill="#0E4429"/>
<path d="M250 50H243C241.895 50 241 50.8954 241 52V59C241 60.1046 241.895 61 243 61H250C251.105 61 252 60.1046 252 59V52C252 50.8954 251.105 50 250 50Z" fill="#0E4429"/>
<path d="M250 65H243C241.895 65 241 65.8954 241 67V74C241 75.1046 241.895 76 243 76H250C251.105 76 252 75.1046 252 74V67C252 65.8954 251.105 65 250 65Z" fill="#0E4429"/>
<path d="M250 80H243C241.895 80 241 80.8954 241 82V89C241 90.1046 241.895 91 243 91H250C251.105 91 252 90.1046 252 89V82C252 80.8954 251.105 80 250 80Z" fill="#0E4429"/>
<path d="M250 95H243C241.895 95 241 95.8954 241 97V104C241 105.105 241.895 106 243 106H250C251.105 106 252 105.105 252 104V97C252 95.8954 251.105 95 250 95Z" fill="#0E4429"/>
<path d="M250 110H243C241.895 110 241 110.895 241 112V119C241 120.105 241.895 121 243 121H250C251.105 121 252 120.105 252 119V112C252 110.895 251.105 110 250 110Z" fill="#0E4429"/>
<path d="M265 20H258C256.895 20 256 20.8954 256 22V29C256 30.1046 256.895 31 258 31H265C266.105 31 267 30.1046 267 29V22C267 20.8954 266.105 20 265 20Z" fill="#0E4429"/>
<path d="M265 35H258C256.895 35 256 35.8954 256 37V44C256 45.1046 256.895 46 258 46H265C266.105 46 267 45.1046 267 44V37C267 35.8954 266.105 35 265 35Z" fill="#0E4429"/>
<path d="M265 50H258C256.895 50 256 50.8954 256 52V59C256 60.1046 256.895 61 258 61H265C266.105 61 267 60.1046 267 59V52C267 50.8954 266.105 50 265 50Z" fill="#0E4429"/>
<path d="M265 65H258C256.895 65 256 65.8954 256 67V74C256 75.1046 256.895 76 258 76H265C266.105 76 267 75.1046 267 74V67C267 65.8954 266.105 65 265 65Z" fill="#0E4429"/>
<path d="M265 80H258C256.895 80 256 80.8954 256 82V89C256 90.1046 256.895 91 258 91H265C266.105 91 267 90.1046 267 89V82C267 80.8954 266.105 80 265 80Z" fill="#0E4429"/>
<path d="M265 95H258C256.895 95 256 95.8954 256 97V104C256 105.105 256.895 106 258 106H265C266.105 106 267 105.105 267 104V97C267 95.8954 266.105 95 265 95Z" fill="#0E4429"/>
<path d="M265 110H258C256.895 110 256 110.895 256 112V119C256 120.105 256.895 121 258 121H265C266.105 121 267 120.105 267 119V112C267 110.895 266.105 110 265 110Z" fill="#0E4429"/>
<path d="M280 20H273C271.895 20 271 20.8954 271 22V29C271 30.1046 271.895 31 273 31H280C281.105 31 282 30.1046 282 29V22C282 20.8954 281.105 20 280 20Z" fill="#39D353"/>
<path d="M280 35H273C271.895 35 271 35.8954 271 37V44C271 45.1046 271.895 46 273 46H280C281.105 46 282 45.1046 282 44V37C282 35.8954 281.105 35 280 35Z" fill="#39D353"/>
<path d="M280 50H273C271.895 50 271 50.8954 271 52V59C271 60.1046 271.895 61 273 61H280C281.105 61 282 60.1046 282 59V52C282 50.8954 281.105 50 280 50Z" fill="#39D353"/>
<path d="M280 65H273C271.895 65 271 65.8954 271 67V74C271 75.1046 271.895 76 273 76H280C281.105 76 282 75.1046 282 74V67C282 65.8954 281.105 65 280 65Z" fill="#39D353"/>
<path d="M280 80H273C271.895 80 271 80.8954 271 82V89C271 90.1046 271.895 91 273 91H280C281.105 91 282 90.1046 282 89V82C282 80.8954 281.105 80 280 80Z" fill="#39D353"/>
<path d="M280 95H273C271.895 95 271 95.8954 271 97V104C271 105.105 271.895 106 273 106H280C281.105 106 282 105.105 282 104V97C282 95.8954 281.105 95 280 95Z" fill="#39D353"/>
<path d="M280 110H273C271.895 110 271 110.895 271 112V119C271 120.105 271.895 121 273 121H280C281.105 121 282 120.105 282 119V112C282 110.895 281.105 110 280 110Z" fill="#39D353"/>
<path d="M295 20H288C286.895 20 286 20.8954 286 22V29C286 30.1046 286.895 31 288 31H295C296.105 31 297 30.1046 297 29V22C297 20.8954 296.105 20 295 20Z" fill="#0E4429"/>
<path d="M295 35H288C286.895 35 286 35.8954 286 37V44C286 45.1046 286.895 46 288 46H295C296.105 46 297 45.1046 297 44V37C297 35.8954 296.105 35 295 35Z" fill="#0E4429"/>
<path d="M295 50H288C286.895 50 286 50.8954 286 52V59C286 60.1046 286.895 61 288 61H295C296.105 61 297 60.1046 297 59V52C297 50.8954 296.105 50 295 50Z" fill="#0E4429"/>
<path d="M295 65H288C286.895 65 286 65.8954 286 67V74C286 75.1046 286.895 76 288 76H295C296.105 76 297 75.1046 297 74V67C297 65.8954 296.105 65 295 65Z" fill="#39D353"/>
<path d="M295 80H288C286.895 80 286 80.8954 286 82V89C286 90.1046 286.895 91 288 91H295C296.105 91 297 90.1046 297 89V82C297 80.8954 296.105 80 295 80Z" fill="#0E4429"/>
<path d="M295 95H288C286.895 95 286 95.8954 286 97V104C286 105.105 286.895 106 288 106H295C296.105 106 297 105.105 297 104V97C297 95.8954 296.105 95 295 95Z" fill="#0E4429"/>
<path d="M295 110H288C286.895 110 286 110.895 286 112V119C286 120.105 286.895 121 288 121H295C296.105 121 297 120.105 297 119V112C297 110.895 296.105 110 295 110Z" fill="#0E4429"/>
<path d="M310 20H303C301.895 20 301 20.8954 301 22V29C301 30.1046 301.895 31 303 31H310C311.105 31 312 30.1046 312 29V22C312 20.8954 311.105 20 310 20Z" fill="#0E4429"/>
<path d="M310 35H303C301.895 35 301 35.8954 301 37V44C301 45.1046 301.895 46 303 46H310C311.105 46 312 45.1046 312 44V37C312 35.8954 311.105 35 310 35Z" fill="#0E4429"/>
<path d="M310 50H303C301.895 50 301 50.8954 301 52V59C301 60.1046 301.895 61 303 61H310C311.105 61 312 60.1046 312 59V52C312 50.8954 311.105 50 310 50Z" fill="#0E4429"/>
<path d="M310 65H303C301.895 65 301 65.8954 301 67V74C301 75.1046 301.895 76 303 76H310C311.105 76 312 75.1046 312 74V67C312 65.8954 311.105 65 310 65Z" fill="#39D353"/>
<path d="M310 80H303C301.895 80 301 80.8954 301 82V89C301 90.1046 301.895 91 303 91H310C311.105 91 312 90.1046 312 89V82C312 80.8954 311.105 80 310 80Z" fill="#0E4429"/>
<path d="M310 95H303C301.895 95 301 95.8954 301 97V104C301 105.105 301.895 106 303 106H310C311.105 106 312 105.105 312 104V97C312 95.8954 311.105 95 310 95Z" fill="#0E4429"/>
<path d="M310 110H303C301.895 110 301 110.895 301 112V119C301 120.105 301.895 121 303 121H310C311.105 121 312 120.105 312 119V112C312 110.895 311.105 110 310 110Z" fill="#0E4429"/>
<path d="M325 20H318C316.895 20 316 20.8954 316 22V29C316 30.1046 316.895 31 318 31H325C326.105 31 327 30.1046 327 29V22C327 20.8954 326.105 20 325 20Z" fill="#0E4429"/>
<path d="M325 35H318C316.895 35 316 35.8954 316 37V44C316 45.1046 316.895 46 318 46H325C326.105 46 327 45.1046 327 44V37C327 35.8954 326.105 35 325 35Z" fill="#0E4429"/>
<path d="M325 50H318C316.895 50 316 50.8954 316 52V59C316 60.1046 316.895 61 318 61H325C326.105 61 327 60.1046 327 59V52C327 50.8954 326.105 50 325 50Z" fill="#0E4429"/>
<path d="M325 65H318C316.895 65 316 65.8954 316 67V74C316 75.1046 316.895 76 318 76H325C326.105 76 327 75.1046 327 74V67C327 65.8954 326.105 65 325 65Z" fill="#39D353"/>
<path d="M325 80H318C316.895 80 316 80.8954 316 82V89C316 90.1046 316.895 91 318 91H325C326.105 91 327 90.1046 327 89V82C327 80.8954 326.105 80 325 80Z" fill="#0E4429"/>
<path d="M325 95H318C316.895 95 316 95.8954 316 97V104C316 105.105 316.895 106 318 106H325C326.105 106 327 105.105 327 104V97C327 95.8954 326.105 95 325 95Z" fill="#0E4429"/>
<path d="M325 110H318C316.895 110 316 110.895 316 112V119C316 120.105 316.895 121 318 121H325C326.105 121 327 120.105 327 119V112C327 110.895 326.105 110 325 110Z" fill="#0E4429"/>
<path d="M340 20H333C331.895 20 331 20.8954 331 22V29C331 30.1046 331.895 31 333 31H340C341.105 31 342 30.1046 342 29V22C342 20.8954 341.105 20 340 20Z" fill="#39D353"/>
<path d="M340 35H333C331.895 35 331 35.8954 331 37V44C331 45.1046 331.895 46 333 46H340C341.105 46 342 45.1046 342 44V37C342 35.8954 341.105 35 340 35Z" fill="#39D353"/>
<path d="M340 50H333C331.895 50 331 50.8954 331 52V59C331 60.1046 331.895 61 333 61H340C341.105 61 342 60.1046 342 59V52C342 50.8954 341.105 50 340 50Z" fill="#39D353"/>
<path d="M340 65H333C331.895 65 331 65.8954 331 67V74C331 75.1046 331.895 76 333 76H340C341.105 76 342 75.1046 342 74V67C342 65.8954 341.105 65 340 65Z" fill="#39D353"/>
<path d="M340 80H333C331.895 80 331 80.8954 331 82V89C331 90.1046 331.895 91 333 91H340C341.105 91 342 90.1046 342 89V82C342 80.8954 341.105 80 340 80Z" fill="#39D353"/>
<path d="M340 95H333C331.895 95 331 95.8954 331 97V104C331 105.105 331.895 106 333 106H340C341.105 106 342 105.105 342 104V97C342 95.8954 341.105 95 340 95Z" fill="#39D353"/>
<path d="M340 110H333C331.895 110 331 110.895 331 112V119C331 120.105 331.895 121 333 121H340C341.105 121 342 120.105 342 119V112C342 110.895 341.105 110 340 110Z" fill="#39D353"/>
<path d="M355 20H348C346.895 20 346 20.8954 346 22V29C346 30.1046 346.895 31 348 31H355C356.105 31 357 30.1046 357 29V22C357 20.8954 356.105 20 355 20Z" fill="#0E4429"/>
<path d="M355 35H348C346.895 35 346 35.8954 346 37V44C346 45.1046 346.895 46 348 46H355C356.105 46 357 45.1046 357 44V37C357 35.8954 356.105 35 355 35Z" fill="#0E4429"/>
<path d="M355 50H348C346.895 50 346 50.8954 346 52V59C346 60.1046 346.895 61 348 61H355C356.105 61 357 60.1046 357 59V52C357 50.8954 356.105 50 355 50Z" fill="#0E4429"/>
<path d="M355 65H348C346.895 65 346 65.8954 346 67V74C346 75.1046 346.895 76 348 76H355C356.105 76 357 75.1046 357 74V67C357 65.8954 356.105 65 355 65Z" fill="#0E4429"/>
<path d="M355 80H348C346.895 80 346 80.8954 346 82V89C346 90.1046 346.895 91 348 91H355C356.105 91 357 90.1046 357 89V82C357 80.8954 356.105 80 355 80Z" fill="#0E4429"/>
<path d="M355 95H348C346.895 95 346 95.8954 346 97V104C346 105.105 346.895 106 348 106H355C356.105 106 357 105.105 357 104V97C357 95.8954 356.105 95 355 95Z" fill="#0E4429"/>
<path d="M355 110H348C346.895 110 346 110.895 346 112V119C346 120.105 346.895 121 348 121H355C356.105 121 357 120.105 357 119V112C357 110.895 356.105 110 355 110Z" fill="#0E4429"/>
<path d="M370 20H363C361.895 20 361 20.8954 361 22V29C361 30.1046 361.895 31 363 31H370C371.105 31 372 30.1046 372 29V22C372 20.8954 371.105 20 370 20Z" fill="#39D353"/>
<path d="M370 35H363C361.895 35 361 35.8954 361 37V44C361 45.1046 361.895 46 363 46H370C371.105 46 372 45.1046 372 44V37C372 35.8954 371.105 35 370 35Z" fill="#39D353"/>
<path d="M370 50H363C361.895 50 361 50.8954 361 52V59C361 60.1046 361.895 61 363 61H370C371.105 61 372 60.1046 372 59V52C372 50.8954 371.105 50 370 50Z" fill="#39D353"/>
<path d="M370 65H363C361.895 65 361 65.8954 361 67V74C361 75.1046 361.895 76 363 76H370C371.105 76 372 75.1046 372 74V67C372 65.8954 371.105 65 370 65Z" fill="#39D353"/>
<path d="M370 80H363C361.895 80 361 80.8954 361 82V89C361 90.1046 361.895 91 363 91H370C371.105 91 372 90.1046 372 89V82C372 80.8954 371.105 80 370 80Z" fill="#39D353"/>
<path d="M370 95H363C361.895 95 361 95.8954 361 97V104C361 105.105 361.895 106 363 106H370C371.105 106 372 105.105 372 104V97C372 95.8954 371.105 95 370 95Z" fill="#39D353"/>
<path d="M370 110H363C361.895 110 361 110.895 361 112V119C361 120.105 361.895 121 363 121H370C371.105 121 372 120.105 372 119V112C372 110.895 371.105 110 370 110Z" fill="#39D353"/>
<path d="M385 20H378C376.895 20 376 20.8954 376 22V29C376 30.1046 376.895 31 378 31H385C386.105 31 387 30.1046 387 29V22C387 20.8954 386.105 20 385 20Z" fill="#39D353"/>
<path d="M385 35H378C376.895 35 376 35.8954 376 37V44C376 45.1046 376.895 46 378 46H385C386.105 46 387 45.1046 387 44V37C387 35.8954 386.105 35 385 35Z" fill="#0E4429"/>
<path d="M385 50H378C376.895 50 376 50.8954 376 52V59C376 60.1046 376.895 61 378 61H385C386.105 61 387 60.1046 387 59V52C387 50.8954 386.105 50 385 50Z" fill="#0E4429"/>
<path d="M385 65H378C376.895 65 376 65.8954 376 67V74C376 75.1046 376.895 76 378 76H385C386.105 76 387 75.1046 387 74V67C387 65.8954 386.105 65 385 65Z" fill="#39D353"/>
<path d="M385 80H378C376.895 80 376 80.8954 376 82V89C376 90.1046 376.895 91 378 91H385C386.105 91 387 90.1046 387 89V82C387 80.8954 386.105 80 385 80Z" fill="#0E4429"/>
<path d="M385 95H378C376.895 95 376 95.8954 376 97V104C376 105.105 376.895 106 378 106H385C386.105 106 387 105.105 387 104V97C387 95.8954 386.105 95 385 95Z" fill="#0E4429"/>
<path d="M385 110H378C376.895 110 376 110.895 376 112V119C376 120.105 376.895 121 378 121H385C386.105 121 387 120.105 387 119V112C387 110.895 386.105 110 385 110Z" fill="#39D353"/>
<path d="M400 20H393C391.895 20 391 20.8954 391 22V29C391 30.1046 391.895 31 393 31H400C401.105 31 402 30.1046 402 29V22C402 20.8954 401.105 20 400 20Z" fill="#39D353"/>
<path d="M400 35H393C391.895 35 391 35.8954 391 37V44C391 45.1046 391.895 46 393 46H400C401.105 46 402 45.1046 402 44V37C402 35.8954 401.105 35 400 35Z" fill="#0E4429"/>
<path d="M400 50H393C391.895 50 391 50.8954 391 52V59C391 60.1046 391.895 61 393 61H400C401.105 61 402 60.1046 402 59V52C402 50.8954 401.105 50 400 50Z" fill="#0E4429"/>
<path d="M400 65H393C391.895 65 391 65.8954 391 67V74C391 75.1046 391.895 76 393 76H400C401.105 76 402 75.1046 402 74V67C402 65.8954 401.105 65 400 65Z" fill="#39D353"/>
<path d="M400 80H393C391.895 80 391 80.8954 391 82V89C391 90.1046 391.895 91 393 91H400C401.105 91 402 90.1046 402 89V82C402 80.8954 401.105 80 400 80Z" fill="#0E4429"/>
<path d="M400 95H393C391.895 95 391 95.8954 391 97V104C391 105.105 391.895 106 393 106H400C401.105 106 402 105.105 402 104V97C402 95.8954 401.105 95 400 95Z" fill="#0E4429"/>
<path d="M400 110H393C391.895 110 391 110.895 391 112V119C391 120.105 391.895 121 393 121H400C401.105 121 402 120.105 402 119V112C402 110.895 401.105 110 400 110Z" fill="#39D353"/>
<path d="M415 20H408C406.895 20 406 20.8954 406 22V29C406 30.1046 406.895 31 408 31H415C416.105 31 417 30.1046 417 29V22C417 20.8954 416.105 20 415 20Z" fill="#39D353"/>
<path d="M415 35H408C406.895 35 406 35.8954 406 37V44C406 45.1046 406.895 46 408 46H415C416.105 46 417 45.1046 417 44V37C417 35.8954 416.105 35 415 35Z" fill="#0E4429"/>
<path d="M415 50H408C406.895 50 406 50.8954 406 52V59C406 60.1046 406.895 61 408 61H415C416.105 61 417 60.1046 417 59V52C417 50.8954 416.105 50 415 50Z" fill="#0E4429"/>
<path d="M415 65H408C406.895 65 406 65.8954 406 67V74C406 75.1046 406.895 76 408 76H415C416.105 76 417 75.1046 417 74V67C417 65.8954 416.105 65 415 65Z" fill="#39D353"/>
<path d="M415 80H408C406.895 80 406 80.8954 406 82V89C406 90.1046 406.895 91 408 91H415C416.105 91 417 90.1046 417 89V82C417 80.8954 416.105 80 415 80Z" fill="#0E4429"/>
<path d="M415 95H408C406.895 95 406 95.8954 406 97V104C406 105.105 406.895 106 408 106H415C416.105 106 417 105.105 417 104V97C417 95.8954 416.105 95 415 95Z" fill="#0E4429"/>
<path d="M415 110H408C406.895 110 406 110.895 406 112V119C406 120.105 406.895 121 408 121H415C416.105 121 417 120.105 417 119V112C417 110.895 416.105 110 415 110Z" fill="#39D353"/>
<path d="M430 20H423C421.895 20 421 20.8954 421 22V29C421 30.1046 421.895 31 423 31H430C431.105 31 432 30.1046 432 29V22C432 20.8954 431.105 20 430 20Z" fill="#39D353"/>
<path d="M430 35H423C421.895 35 421 35.8954 421 37V44C421 45.1046 421.895 46 423 46H430C431.105 46 432 45.1046 432 44V37C432 35.8954 431.105 35 430 35Z" fill="#0E4429"/>
<path d="M430 50H423C421.895 50 421 50.8954 421 52V59C421 60.1046 421.895 61 423 61H430C431.105 61 432 60.1046 432 59V52C432 50.8954 431.105 50 430 50Z" fill="#0E4429"/>
<path d="M430 65H423C421.895 65 421 65.8954 421 67V74C421 75.1046 421.895 76 423 76H430C431.105 76 432 75.1046 432 74V67C432 65.8954 431.105 65 430 65Z" fill="#39D353"/>
<path d="M430 80H423C421.895 80 421 80.8954 421 82V89C421 90.1046 421.895 91 423 91H430C431.105 91 432 90.1046 432 89V82C432 80.8954 431.105 80 430 80Z" fill="#0E4429"/>
<path d="M430 95H423C421.895 95 421 95.8954 421 97V104C421 105.105 421.895 106 423 106H430C431.105 106 432 105.105 432 104V97C432 95.8954 431.105 95 430 95Z" fill="#0E4429"/>
<path d="M430 110H423C421.895 110 421 110.895 421 112V119C421 120.105 421.895 121 423 121H430C431.105 121 432 120.105 432 119V112C432 110.895 431.105 110 430 110Z" fill="#39D353"/>
<path d="M445 20H438C436.895 20 436 20.8954 436 22V29C436 30.1046 436.895 31 438 31H445C446.105 31 447 30.1046 447 29V22C447 20.8954 446.105 20 445 20Z" fill="#0E4429"/>
<path d="M445 35H438C436.895 35 436 35.8954 436 37V44C436 45.1046 436.895 46 438 46H445C446.105 46 447 45.1046 447 44V37C447 35.8954 446.105 35 445 35Z" fill="#0E4429"/>
<path d="M445 50H438C436.895 50 436 50.8954 436 52V59C436 60.1046 436.895 61 438 61H445C446.105 61 447 60.1046 447 59V52C447 50.8954 446.105 50 445 50Z" fill="#0E4429"/>
<path d="M445 65H438C436.895 65 436 65.8954 436 67V74C436 75.1046 436.895 76 438 76H445C446.105 76 447 75.1046 447 74V67C447 65.8954 446.105 65 445 65Z" fill="#0E4429"/>
<path d="M445 80H438C436.895 80 436 80.8954 436 82V89C436 90.1046 436.895 91 438 91H445C446.105 91 447 90.1046 447 89V82C447 80.8954 446.105 80 445 80Z" fill="#0E4429"/>
<path d="M445 95H438C436.895 95 436 95.8954 436 97V104C436 105.105 436.895 106 438 106H445C446.105 106 447 105.105 447 104V97C447 95.8954 446.105 95 445 95Z" fill="#0E4429"/>
<path d="M445 110H438C436.895 110 436 110.895 436 112V119C436 120.105 436.895 121 438 121H445C446.105 121 447 120.105 447 119V112C447 110.895 446.105 110 445 110Z" fill="#0E4429"/>
<path d="M460 20H453C451.895 20 451 20.8954 451 22V29C451 30.1046 451.895 31 453 31H460C461.105 31 462 30.1046 462 29V22C462 20.8954 461.105 20 460 20Z" fill="#39D353"/>
<path d="M460 35H453C451.895 35 451 35.8954 451 37V44C451 45.1046 451.895 46 453 46H460C461.105 46 462 45.1046 462 44V37C462 35.8954 461.105 35 460 35Z" fill="#39D353"/>
<path d="M460 50H453C451.895 50 451 50.8954 451 52V59C451 60.1046 451.895 61 453 61H460C461.105 61 462 60.1046 462 59V52C462 50.8954 461.105 50 460 50Z" fill="#39D353"/>
<path d="M460 65H453C451.895 65 451 65.8954 451 67V74C451 75.1046 451.895 76 453 76H460C461.105 76 462 75.1046 462 74V67C462 65.8954 461.105 65 460 65Z" fill="#39D353"/>
<path d="M460 80H453C451.895 80 451 80.8954 451 82V89C451 90.1046 451.895 91 453 91H460C461.105 91 462 90.1046 462 89V82C462 80.8954 461.105 80 460 80Z" fill="#39D353"/>
<path d="M460 95H453C451.895 95 451 95.8954 451 97V104C451 105.105 451.895 106 453 106H460C461.105 106 462 105.105 462 104V97C462 95.8954 461.105 95 460 95Z" fill="#39D353"/>
<path d="M460 110H453C451.895 110 451 110.895 451 112V119C451 120.105 451.895 121 453 121H460C461.105 121 462 120.105 462 119V112C462 110.895 461.105 110 460 110Z" fill="#39D353"/>
<path d="M475 20H468C466.895 20 466 20.8954 466 22V29C466 30.1046 466.895 31 468 31H475C476.105 31 477 30.1046 477 29V22C477 20.8954 476.105 20 475 20Z" fill="#39D353"/>
<path d="M475 35H468C466.895 35 466 35.8954 466 37V44C466 45.1046 466.895 46 468 46H475C476.105 46 477 45.1046 477 44V37C477 35.8954 476.105 35 475 35Z" fill="#0E4429"/>
<path d="M475 50H468C466.895 50 466 50.8954 466 52V59C466 60.1046 466.895 61 468 61H475C476.105 61 477 60.1046 477 59V52C477 50.8954 476.105 50 475 50Z" fill="#0E4429"/>
<path d="M475 65H468C466.895 65 466 65.8954 466 67V74C466 75.1046 466.895 76 468 76H475C476.105 76 477 75.1046 477 74V67C477 65.8954 476.105 65 475 65Z" fill="#39D353"/>
<path d="M475 80H468C466.895 80 466 80.8954 466 82V89C466 90.1046 466.895 91 468 91H475C476.105 91 477 90.1046 477 89V82C477 80.8954 476.105 80 475 80Z" fill="#0E4429"/>
<path d="M475 95H468C466.895 95 466 95.8954 466 97V104C466 105.105 466.895 106 468 106H475C476.105 106 477 105.105 477 104V97C477 95.8954 476.105 95 475 95Z" fill="#0E4429"/>
<path d="M475 110H468C466.895 110 466 110.895 466 112V119C466 120.105 466.895 121 468 121H475C476.105 121 477 120.105 477 119V112C477 110.895 476.105 110 475 110Z" fill="#39D353"/>
<path d="M490 20H483C481.895 20 481 20.8954 481 22V29C481 30.1046 481.895 31 483 31H490C491.105 31 492 30.1046 492 29V22C492 20.8954 491.105 20 490 20Z" fill="#39D353"/>
<path d="M490 35H483C481.895 35 481 35.8954 481 37V44C481 45.1046 481.895 46 483 46H490C491.105 46 492 45.1046 492 44V37C492 35.8954 491.105 35 490 35Z" fill="#0E4429"/>
<path d="M490 50H483C481.895 50 481 50.8954 481 52V59C481 60.1046 481.895 61 483 61H490C491.105 61 492 60.1046 492 59V52C492 50.8954 491.105 50 490 50Z" fill="#0E4429"/>
<path d="M490 65H483C481.895 65 481 65.8954 481 67V74C481 75.1046 481.895 76 483 76H490C491.105 76 492 75.1046 492 74V67C492 65.8954 491.105 65 490 65Z" fill="#39D353"/>
<path d="M490 80H483C481.895 80 481 80.8954 481 82V89C481 90.1046 481.895 91 483 91H490C491.105 91 492 90.1046 492 89V82C492 80.8954 491.105 80 490 80Z" fill="#0E4429"/>
<path d="M490 95H483C481.895 95 481 95.8954 481 97V104C481 105.105 481.895 106 483 106H490C491.105 106 492 105.105 492 104V97C492 95.8954 491.105 95 490 95Z" fill="#0E4429"/>
<path d="M490 110H483C481.895 110 481 110.895 481 112V119C481 120.105 481.895 121 483 121H490C491.105 121 492 120.105 492 119V112C492 110.895 491.105 110 490 110Z" fill="#39D353"/>
<path d="M505 20H498C496.895 20 496 20.8954 496 22V29C496 30.1046 496.895 31 498 31H505C506.105 31 507 30.1046 507 29V22C507 20.8954 506.105 20 505 20Z" fill="#39D353"/>
<path d="M505 35H498C496.895 35 496 35.8954 496 37V44C496 45.1046 496.895 46 498 46H505C506.105 46 507 45.1046 507 44V37C507 35.8954 506.105 35 505 35Z" fill="#0E4429"/>
<path d="M505 50H498C496.895 50 496 50.8954 496 52V59C496 60.1046 496.895 61 498 61H505C506.105 61 507 60.1046 507 59V52C507 50.8954 506.105 50 505 50Z" fill="#0E4429"/>
<path d="M505 65H498C496.895 65 496 65.8954 496 67V74C496 75.1046 496.895 76 498 76H505C506.105 76 507 75.1046 507 74V67C507 65.8954 506.105 65 505 65Z" fill="#39D353"/>
<path d="M505 80H498C496.895 80 496 80.8954 496 82V89C496 90.1046 496.895 91 498 91H505C506.105 91 507 90.1046 507 89V82C507 80.8954 506.105 80 505 80Z" fill="#0E4429"/>
<path d="M505 95H498C496.895 95 496 95.8954 496 97V104C496 105.105 496.895 106 498 106H505C506.105 106 507 105.105 507 104V97C507 95.8954 506.105 95 505 95Z" fill="#0E4429"/>
<path d="M505 110H498C496.895 110 496 110.895 496 112V119C496 120.105 496.895 121 498 121H505C506.105 121 507 120.105 507 119V112C507 110.895 506.105 110 505 110Z" fill="#39D353"/>
<path d="M520 20H513C511.895 20 511 20.8954 511 22V29C511 30.1046 511.895 31 513 31H520C521.105 31 522 30.1046 522 29V22C522 20.8954 521.105 20 520 20Z" fill="#0E4429"/>
<path d="M520 35H513C511.895 35 511 35.8954 511 37V44C511 45.1046 511.895 46 513 46H520C521.105 46 522 45.1046 522 44V37C522 35.8954 521.105 35 520 35Z" fill="#39D353"/>
<path d="M520 50H513C511.895 50 511 50.8954 511 52V59C511 60.1046 511.895 61 513 61H520C521.105 61 522 60.1046 522 59V52C522 50.8954 521.105 50 520 50Z" fill="#39D353"/>
<path d="M520 65H513C511.895 65 511 65.8954 511 67V74C511 75.1046 511.895 76 513 76H520C521.105 76 522 75.1046 522 74V67C522 65.8954 521.105 65 520 65Z" fill="#0E4429"/>
<path d="M520 80H513C511.895 80 511 80.8954 511 82V89C511 90.1046 511.895 91 513 91H520C521.105 91 522 90.1046 522 89V82C522 80.8954 521.105 80 520 80Z" fill="#39D353"/>
<path d="M520 95H513C511.895 95 511 95.8954 511 97V104C511 105.105 511.895 106 513 106H520C521.105 106 522 105.105 522 104V97C522 95.8954 521.105 95 520 95Z" fill="#39D353"/>
<path d="M520 110H513C511.895 110 511 110.895 511 112V119C511 120.105 511.895 121 513 121H520C521.105 121 522 120.105 522 119V112C522 110.895 521.105 110 520 110Z" fill="#0E4429"/>
<path d="M535 20H528C526.895 20 526 20.8954 526 22V29C526 30.1046 526.895 31 528 31H535C536.105 31 537 30.1046 537 29V22C537 20.8954 536.105 20 535 20Z" fill="#0E4429"/>
<path d="M535 35H528C526.895 35 526 35.8954 526 37V44C526 45.1046 526.895 46 528 46H535C536.105 46 537 45.1046 537 44V37C537 35.8954 536.105 35 535 35Z" fill="#0E4429"/>
<path d="M535 50H528C526.895 50 526 50.8954 526 52V59C526 60.1046 526.895 61 528 61H535C536.105 61 537 60.1046 537 59V52C537 50.8954 536.105 50 535 50Z" fill="#0E4429"/>
<path d="M535 65H528C526.895 65 526 65.8954 526 67V74C526 75.1046 526.895 76 528 76H535C536.105 76 537 75.1046 537 74V67C537 65.8954 536.105 65 535 65Z" fill="#0E4429"/>
<path d="M535 80H528C526.895 80 526 80.8954 526 82V89C526 90.1046 526.895 91 528 91H535C536.105 91 537 90.1046 537 89V82C537 80.8954 536.105 80 535 80Z" fill="#0E4429"/>
<path d="M535 95H528C526.895 95 526 95.8954 526 97V104C526 105.105 526.895 106 528 106H535C536.105 106 537 105.105 537 104V97C537 95.8954 536.105 95 535 95Z" fill="#0E4429"/>
<path d="M535 110H528C526.895 110 526 110.895 526 112V119C526 120.105 526.895 121 528 121H535C536.105 121 537 120.105 537 119V112C537 110.895 536.105 110 535 110Z" fill="#0E4429"/>
<path d="M550 20H543C541.895 20 541 20.8954 541 22V29C541 30.1046 541.895 31 543 31H550C551.105 31 552 30.1046 552 29V22C552 20.8954 551.105 20 550 20Z" fill="#39D353"/>
<path d="M550 35H543C541.895 35 541 35.8954 541 37V44C541 45.1046 541.895 46 543 46H550C551.105 46 552 45.1046 552 44V37C552 35.8954 551.105 35 550 35Z" fill="#39D353"/>
<path d="M550 50H543C541.895 50 541 50.8954 541 52V59C541 60.1046 541.895 61 543 61H550C551.105 61 552 60.1046 552 59V52C552 50.8954 551.105 50 550 50Z" fill="#39D353"/>
<path d="M550 65H543C541.895 65 541 65.8954 541 67V74C541 75.1046 541.895 76 543 76H550C551.105 76 552 75.1046 552 74V67C552 65.8954 551.105 65 550 65Z" fill="#39D353"/>
<path d="M550 80H543C541.895 80 541 80.8954 541 82V89C541 90.1046 541.895 91 543 91H550C551.105 91 552 90.1046 552 89V82C552 80.8954 551.105 80 550 80Z" fill="#39D353"/>
<path d="M550 95H543C541.895 95 541 95.8954 541 97V104C541 105.105 541.895 106 543 106H550C551.105 106 552 105.105 552 104V97C552 95.8954 551.105 95 550 95Z" fill="#39D353"/>
<path d="M550 110H543C541.895 110 541 110.895 541 112V119C541 120.105 541.895 121 543 121H550C551.105 121 552 120.105 552 119V112C552 110.895 551.105 110 550 110Z" fill="#39D353"/>
<path d="M565 20H558C556.895 20 556 20.8954 556 22V29C556 30.1046 556.895 31 558 31H565C566.105 31 567 30.1046 567 29V22C567 20.8954 566.105 20 565 20Z" fill="#39D353"/>
<path d="M565 35H558C556.895 35 556 35.8954 556 37V44C556 45.1046 556.895 46 558 46H565C566.105 46 567 45.1046 567 44V37C567 35.8954 566.105 35 565 35Z" fill="#0E4429"/>
<path d="M565 50H558C556.895 50 556 50.8954 556 52V59C556 60.1046 556.895 61 558 61H565C566.105 61 567 60.1046 567 59V52C567 50.8954 566.105 50 565 50Z" fill="#0E4429"/>
<path d="M565 65H558C556.895 65 556 65.8954 556 67V74C556 75.1046 556.895 76 558 76H565C566.105 76 567 75.1046 567 74V67C567 65.8954 566.105 65 565 65Z" fill="#39D353"/>
<path d="M565 80H558C556.895 80 556 80.8954 556 82V89C556 90.1046 556.895 91 558 91H565C566.105 91 567 90.1046 567 89V82C567 80.8954 566.105 80 565 80Z" fill="#0E4429"/>
<path d="M565 95H558C556.895 95 556 95.8954 556 97V104C556 105.105 556.895 106 558 106H565C566.105 106 567 105.105 567 104V97C567 95.8954 566.105 95 565 95Z" fill="#0E4429"/>
<path d="M565 110H558C556.895 110 556 110.895 556 112V119C556 120.105 556.895 121 558 121H565C566.105 121 567 120.105 567 119V112C567 110.895 566.105 110 565 110Z" fill="#39D353"/>
<path d="M580 20H573C571.895 20 571 20.8954 571 22V29C571 30.1046 571.895 31 573 31H580C581.105 31 582 30.1046 582 29V22C582 20.8954 581.105 20 580 20Z" fill="#39D353"/>
<path d="M580 35H573C571.895 35 571 35.8954 571 37V44C571 45.1046 571.895 46 573 46H580C581.105 46 582 45.1046 582 44V37C582 35.8954 581.105 35 580 35Z" fill="#0E4429"/>
<path d="M580 50H573C571.895 50 571 50.8954 571 52V59C571 60.1046 571.895 61 573 61H580C581.105 61 582 60.1046 582 59V52C582 50.8954 581.105 50 580 50Z" fill="#0E4429"/>
<path d="M580 65H573C571.895 65 571 65.8954 571 67V74C571 75.1046 571.895 76 573 76H580C581.105 76 582 75.1046 582 74V67C582 65.8954 581.105 65 580 65Z" fill="#39D353"/>
<path d="M580 80H573C571.895 80 571 80.8954 571 82V89C571 90.1046 571.895 91 573 91H580C581.105 91 582 90.1046 582 89V82C582 80.8954 581.105 80 580 80Z" fill="#0E4429"/>
<path d="M580 95H573C571.895 95 571 95.8954 571 97V104C571 105.105 571.895 106 573 106H580C581.105 106 582 105.105 582 104V97C582 95.8954 581.105 95 580 95Z" fill="#0E4429"/>
<path d="M580 110H573C571.895 110 571 110.895 571 112V119C571 120.105 571.895 121 573 121H580C581.105 121 582 120.105 582 119V112C582 110.895 581.105 110 580 110Z" fill="#39D353"/>
<path d="M595 20H588C586.895 20 586 20.8954 586 22V29C586 30.1046 586.895 31 588 31H595C596.105 31 597 30.1046 597 29V22C597 20.8954 596.105 20 595 20Z" fill="#39D353"/>
<path d="M595 35H588C586.895 35 586 35.8954 586 37V44C586 45.1046 586.895 46 588 46H595C596.105 46 597 45.1046 597 44V37C597 35.8954 596.105 35 595 35Z" fill="#0E4429"/>
<path d="M595 50H588C586.895 50 586 50.8954 586 52V59C586 60.1046 586.895 61 588 61H595C596.105 61 597 60.1046 597 59V52C597 50.8954 596.105 50 595 50Z" fill="#0E4429"/>
<path d="M595 65H588C586.895 65 586 65.8954 586 67V74C586 75.1046 586.895 76 588 76H595C596.105 76 597 75.1046 597 74V67C597 65.8954 596.105 65 595 65Z" fill="#39D353"/>
<path d="M595 80H588C586.895 80 586 80.8954 586 82V89C586 90.1046 586.895 91 588 91H595C596.105 91 597 90.1046 597 89V82C597 80.8954 596.105 80 595 80Z" fill="#0E4429"/>
<path d="M595 95H588C586.895 95 586 95.8954 586 97V104C586 105.105 586.895 106 588 106H595C596.105 106 597 105.105 597 104V97C597 95.8954 596.105 95 595 95Z" fill="#0E4429"/>
<path d="M595 110H588C586.895 110 586 110.895 586 112V119C586 120.105 586.895 121 588 121H595C596.105 121 597 120.105 597 119V112C597 110.895 596.105 110 595 110Z" fill="#39D353"/>
<path d="M610 20H603C601.895 20 601 20.8954 601 22V29C601 30.1046 601.895 31 603 31H610C611.105 31 612 30.1046 612 29V22C612 20.8954 611.105 20 610 20Z" fill="#39D353"/>
<path d="M610 35H603C601.895 35 601 35.8954 601 37V44C601 45.1046 601.895 46 603 46H610C611.105 46 612 45.1046 612 44V37C612 35.8954 611.105 35 610 35Z" fill="#0E4429"/>
<path d="M610 50H603C601.895 50 601 50.8954 601 52V59C601 60.1046 601.895 61 603 61H610C611.105 61 612 60.1046 612 59V52C612 50.8954 611.105 50 610 50Z" fill="#0E4429"/>
<path d="M610 65H603C601.895 65 601 65.8954 601 67V74C601 75.1046 601.895 76 603 76H610C611.105 76 612 75.1046 612 74V67C612 65.8954 611.105 65 610 65Z" fill="#39D353"/>
<path d="M610 80H603C601.895 80 601 80.8954 601 82V89C601 90.1046 601.895 91 603 91H610C611.105 91 612 90.1046 612 89V82C612 80.8954 611.105 80 610 80Z" fill="#0E4429"/>
<path d="M610 95H603C601.895 95 601 95.8954 601 97V104C601 105.105 601.895 106 603 106H610C611.105 106 612 105.105 612 104V97C612 95.8954 611.105 95 610 95Z" fill="#0E4429"/>
<path d="M610 110H603C601.895 110 601 110.895 601 112V119C601 120.105 601.895 121 603 121H610C611.105 121 612 120.105 612 119V112C612 110.895 611.105 110 610 110Z" fill="#39D353"/>
<path d="M625 20H618C616.895 20 616 20.8954 616 22V29C616 30.1046 616.895 31 618 31H625C626.105 31 627 30.1046 627 29V22C627 20.8954 626.105 20 625 20Z" fill="#0E4429"/>
<path d="M625 35H618C616.895 35 616 35.8954 616 37V44C616 45.1046 616.895 46 618 46H625C626.105 46 627 45.1046 627 44V37C627 35.8954 626.105 35 625 35Z" fill="#0E4429"/>
<path d="M625 50H618C616.895 50 616 50.8954 616 52V59C616 60.1046 616.895 61 618 61H625C626.105 61 627 60.1046 627 59V52C627 50.8954 626.105 50 625 50Z" fill="#0E4429"/>
<path d="M625 65H618C616.895 65 616 65.8954 616 67V74C616 75.1046 616.895 76 618 76H625C626.105 76 627 75.1046 627 74V67C627 65.8954 626.105 65 625 65Z" fill="#0E4429"/>
<path d="M625 80H618C616.895 80 616 80.8954 616 82V89C616 90.1046 616.895 91 618 91H625C626.105 91 627 90.1046 627 89V82C627 80.8954 626.105 80 625 80Z" fill="#0E4429"/>
<path d="M625 95H618C616.895 95 616 95.8954 616 97V104C616 105.105 616.895 106 618 106H625C626.105 106 627 105.105 627 104V97C627 95.8954 626.105 95 625 95Z" fill="#0E4429"/>
<path d="M625 110H618C616.895 110 616 110.895 616 112V119C616 120.105 616.895 121 618 121H625C626.105 121 627 120.105 627 119V112C627 110.895 626.105 110 625 110Z" fill="#0E4429"/>
<path d="M640 20H633C631.895 20 631 20.8954 631 22V29C631 30.1046 631.895 31 633 31H640C641.105 31 642 30.1046 642 29V22C642 20.8954 641.105 20 640 20Z" fill="#0E4429"/>
<path d="M640 35H633C631.895 35 631 35.8954 631 37V44C631 45.1046 631.895 46 633 46H640C641.105 46 642 45.1046 642 44V37C642 35.8954 641.105 35 640 35Z" fill="#39D353"/>
<path d="M640 50H633C631.895 50 631 50.8954 631 52V59C631 60.1046 631.895 61 633 61H640C641.105 61 642 60.1046 642 59V52C642 50.8954 641.105 50 640 50Z" fill="#39D353"/>
<path d="M640 65H633C631.895 65 631 65.8954 631 67V74C631 75.1046 631.895 76 633 76H640C641.105 76 642 75.1046 642 74V67C642 65.8954 641.105 65 640 65Z" fill="#0E4429"/>
<path d="M640 80H633C631.895 80 631 80.8954 631 82V89C631 90.1046 631.895 91 633 91H640C641.105 91 642 90.1046 642 89V82C642 80.8954 641.105 80 640 80Z" fill="#0E4429"/>
<path d="M640 95H633C631.895 95 631 95.8954 631 97V104C631 105.105 631.895 106 633 106H640C641.105 106 642 105.105 642 104V97C642 95.8954 641.105 95 640 95Z" fill="#39D353"/>
<path d="M640 110H633C631.895 110 631 110.895 631 112V119C631 120.105 631.895 121 633 121H640C641.105 121 642 120.105 642 119V112C642 110.895 641.105 110 640 110Z" fill="#0E4429"/>
<path d="M655 20H648C646.895 20 646 20.8954 646 22V29C646 30.1046 646.895 31 648 31H655C656.105 31 657 30.1046 657 29V22C657 20.8954 656.105 20 655 20Z" fill="#39D353"/>
<path d="M655 35H648C646.895 35 646 35.8954 646 37V44C646 45.1046 646.895 46 648 46H655C656.105 46 657 45.1046 657 44V37C657 35.8954 656.105 35 655 35Z" fill="#0E4429"/>
<path d="M655 50H648C646.895 50 646 50.8954 646 52V59C646 60.1046 646.895 61 648 61H655C656.105 61 657 60.1046 657 59V52C657 50.8954 656.105 50 655 50Z" fill="#0E4429"/>
<path d="M655 65H648C646.895 65 646 65.8954 646 67V74C646 75.1046 646.895 76 648 76H655C656.105 76 657 75.1046 657 74V67C657 65.8954 656.105 65 655 65Z" fill="#39D353"/>
<path d="M655 80H648C646.895 80 646 80.8954 646 82V89C646 90.1046 646.895 91 648 91H655C656.105 91 657 90.1046 657 89V82C657 80.8954 656.105 80 655 80Z" fill="#0E4429"/>
<path d="M655 95H648C646.895 95 646 95.8954 646 97V104C646 105.105 646.895 106 648 106H655C656.105 106 657 105.105 657 104V97C657 95.8954 656.105 95 655 95Z" fill="#0E4429"/>
<path d="M655 110H648C646.895 110 646 110.895 646 112V119C646 120.105 646.895 121 648 121H655C656.105 121 657 120.105 657 119V112C657 110.895 656.105 110 655 110Z" fill="#39D353"/>
<path d="M670 20H663C661.895 20 661 20.8954 661 22V29C661 30.1046 661.895 31 663 31H670C671.105 31 672 30.1046 672 29V22C672 20.8954 671.105 20 670 20Z" fill="#39D353"/>
<path d="M670 35H663C661.895 35 661 35.8954 661 37V44C661 45.1046 661.895 46 663 46H670C671.105 46 672 45.1046 672 44V37C672 35.8954 671.105 35 670 35Z" fill="#0E4429"/>
<path d="M670 50H663C661.895 50 661 50.8954 661 52V59C661 60.1046 661.895 61 663 61H670C671.105 61 672 60.1046 672 59V52C672 50.8954 671.105 50 670 50Z" fill="#0E4429"/>
<path d="M670 65H663C661.895 65 661 65.8954 661 67V74C661 75.1046 661.895 76 663 76H670C671.105 76 672 75.1046 672 74V67C672 65.8954 671.105 65 670 65Z" fill="#39D353"/>
<path d="M670 80H663C661.895 80 661 80.8954 661 82V89C661 90.1046 661.895 91 663 91H670C671.105 91 672 90.1046 672 89V82C672 80.8954 671.105 80 670 80Z" fill="#0E4429"/>
<path d="M670 95H663C661.895 95 661 95.8954 661 97V104C661 105.105 661.895 106 663 106H670C671.105 106 672 105.105 672 104V97C672 95.8954 671.105 95 670 95Z" fill="#0E4429"/>
<path d="M670 110H663C661.895 110 661 110.895 661 112V119C661 120.105 661.895 121 663 121H670C671.105 121 672 120.105 672 119V112C672 110.895 671.105 110 670 110Z" fill="#39D353"/>
<path d="M685 20H678C676.895 20 676 20.8954 676 22V29C676 30.1046 676.895 31 678 31H685C686.105 31 687 30.1046 687 29V22C687 20.8954 686.105 20 685 20Z" fill="#39D353"/>
<path d="M685 35H678C676.895 35 676 35.8954 676 37V44C676 45.1046 676.895 46 678 46H685C686.105 46 687 45.1046 687 44V37C687 35.8954 686.105 35 685 35Z" fill="#0E4429"/>
<path d="M685 50H678C676.895 50 676 50.8954 676 52V59C676 60.1046 676.895 61 678 61H685C686.105 61 687 60.1046 687 59V52C687 50.8954 686.105 50 685 50Z" fill="#0E4429"/>
<path d="M685 65H678C676.895 65 676 65.8954 676 67V74C676 75.1046 676.895 76 678 76H685C686.105 76 687 75.1046 687 74V67C687 65.8954 686.105 65 685 65Z" fill="#39D353"/>
<path d="M685 80H678C676.895 80 676 80.8954 676 82V89C676 90.1046 676.895 91 678 91H685C686.105 91 687 90.1046 687 89V82C687 80.8954 686.105 80 685 80Z" fill="#0E4429"/>
<path d="M685 95H678C676.895 95 676 95.8954 676 97V104C676 105.105 676.895 106 678 106H685C686.105 106 687 105.105 687 104V97C687 95.8954 686.105 95 685 95Z" fill="#0E4429"/>
<path d="M685 110H678C676.895 110 676 110.895 676 112V119C676 120.105 676.895 121 678 121H685C686.105 121 687 120.105 687 119V112C687 110.895 686.105 110 685 110Z" fill="#39D353"/>
<path d="M700 20H693C691.895 20 691 20.8954 691 22V29C691 30.1046 691.895 31 693 31H700C701.105 31 702 30.1046 702 29V22C702 20.8954 701.105 20 700 20Z" fill="#0E4429"/>
<path d="M700 35H693C691.895 35 691 35.8954 691 37V44C691 45.1046 691.895 46 693 46H700C701.105 46 702 45.1046 702 44V37C702 35.8954 701.105 35 700 35Z" fill="#39D353"/>
<path d="M700 50H693C691.895 50 691 50.8954 691 52V59C691 60.1046 691.895 61 693 61H700C701.105 61 702 60.1046 702 59V52C702 50.8954 701.105 50 700 50Z" fill="#0E4429"/>
<path d="M700 65H693C691.895 65 691 65.8954 691 67V74C691 75.1046 691.895 76 693 76H700C701.105 76 702 75.1046 702 74V67C702 65.8954 701.105 65 700 65Z" fill="#0E4429"/>
<path d="M700 80H693C691.895 80 691 80.8954 691 82V89C691 90.1046 691.895 91 693 91H700C701.105 91 702 90.1046 702 89V82C702 80.8954 701.105 80 700 80Z" fill="#39D353"/>
<path d="M700 95H693C691.895 95 691 95.8954 691 97V104C691 105.105 691.895 106 693 106H700C701.105 106 702 105.105 702 104V97C702 95.8954 701.105 95 700 95Z" fill="#39D353"/>
<path d="M700 110H693C691.895 110 691 110.895 691 112V119C691 120.105 691.895 121 693 121H700C701.105 121 702 120.105 702 119V112C702 110.895 701.105 110 700 110Z" fill="#0E4429"/>
<path d="M715 20H708C706.895 20 706 20.8954 706 22V29C706 30.1046 706.895 31 708 31H715C716.105 31 717 30.1046 717 29V22C717 20.8954 716.105 20 715 20Z" fill="#0E4429"/>
<path d="M715 35H708C706.895 35 706 35.8954 706 37V44C706 45.1046 706.895 46 708 46H715C716.105 46 717 45.1046 717 44V37C717 35.8954 716.105 35 715 35Z" fill="#0E4429"/>
<path d="M715 50H708C706.895 50 706 50.8954 706 52V59C706 60.1046 706.895 61 708 61H715C716.105 61 717 60.1046 717 59V52C717 50.8954 716.105 50 715 50Z" fill="#0E4429"/>
<path d="M715 65H708C706.895 65 706 65.8954 706 67V74C706 75.1046 706.895 76 708 76H715C716.105 76 717 75.1046 717 74V67C717 65.8954 716.105 65 715 65Z" fill="#0E4429"/>
<path d="M715 80H708C706.895 80 706 80.8954 706 82V89C706 90.1046 706.895 91 708 91H715C716.105 91 717 90.1046 717 89V82C717 80.8954 716.105 80 715 80Z" fill="#0E4429"/>
<path d="M715 95H708C706.895 95 706 95.8954 706 97V104C706 105.105 706.895 106 708 106H715C716.105 106 717 105.105 717 104V97C717 95.8954 716.105 95 715 95Z" fill="#0E4429"/>
<path d="M715 110H708C706.895 110 706 110.895 706 112V119C706 120.105 706.895 121 708 121H715C716.105 121 717 120.105 717 119V112C717 110.895 716.105 110 715 110Z" fill="#0E4429"/>
<path d="M730 20H723C721.895 20 721 20.8954 721 22V29C721 30.1046 721.895 31 723 31H730C731.105 31 732 30.1046 732 29V22C732 20.8954 731.105 20 730 20Z" fill="#39D353"/>
<path d="M730 35H723C721.895 35 721 35.8954 721 37V44C721 45.1046 721.895 46 723 46H730C731.105 46 732 45.1046 732 44V37C732 35.8954 731.105 35 730 35Z" fill="#0E4429"/>
<path d="M730 50H723C721.895 50 721 50.8954 721 52V59C721 60.1046 721.895 61 723 61H730C731.105 61 732 60.1046 732 59V52C732 50.8954 731.105 50 730 50Z" fill="#0E4429"/>
<path d="M730 65H723C721.895 65 721 65.8954 721 67V74C721 75.1046 721.895 76 723 76H730C731.105 76 732 75.1046 732 74V67C732 65.8954 731.105 65 730 65Z" fill="#0E4429"/>
<path d="M730 80H723C721.895 80 721 80.8954 721 82V89C721 90.1046 721.895 91 723 91H730C731.105 91 732 90.1046 732 89V82C732 80.8954 731.105 80 730 80Z" fill="#0E4429"/>
<path d="M730 95H723C721.895 95 721 95.8954 721 97V104C721 105.105 721.895 106 723 106H730C731.105 106 732 105.105 732 104V97C732 95.8954 731.105 95 730 95Z" fill="#0E4429"/>
<path d="M730 110H723C721.895 110 721 110.895 721 112V119C721 120.105 721.895 121 723 121H730C731.105 121 732 120.105 732 119V112C732 110.895 731.105 110 730 110Z" fill="#0E4429"/>
<path d="M745 20H738C736.895 20 736 20.8954 736 22V29C736 30.1046 736.895 31 738 31H745C746.105 31 747 30.1046 747 29V22C747 20.8954 746.105 20 745 20Z" fill="#39D353"/>
<path d="M745 35H738C736.895 35 736 35.8954 736 37V44C736 45.1046 736.895 46 738 46H745C746.105 46 747 45.1046 747 44V37C747 35.8954 746.105 35 745 35Z" fill="#0E4429"/>
<path d="M745 50H738C736.895 50 736 50.8954 736 52V59C736 60.1046 736.895 61 738 61H745C746.105 61 747 60.1046 747 59V52C747 50.8954 746.105 50 745 50Z" fill="#0E4429"/>
<path d="M745 65H738C736.895 65 736 65.8954 736 67V74C736 75.1046 736.895 76 738 76H745C746.105 76 747 75.1046 747 74V67C747 65.8954 746.105 65 745 65Z" fill="#0E4429"/>
<path d="M745 80H738C736.895 80 736 80.8954 736 82V89C736 90.1046 736.895 91 738 91H745C746.105 91 747 90.1046 747 89V82C747 80.8954 746.105 80 745 80Z" fill="#0E4429"/>
<path d="M745 95H738C736.895 95 736 95.8954 736 97V104C736 105.105 736.895 106 738 106H745C746.105 106 747 105.105 747 104V97C747 95.8954 746.105 95 745 95Z" fill="#0E4429"/>
<path d="M745 110H738C736.895 110 736 110.895 736 112V119C736 120.105 736.895 121 738 121H745C746.105 121 747 120.105 747 119V112C747 110.895 746.105 110 745 110Z" fill="#0E4429"/>
<path d="M760 20H753C751.895 20 751 20.8954 751 22V29C751 30.1046 751.895 31 753 31H760C761.105 31 762 30.1046 762 29V22C762 20.8954 761.105 20 760 20Z" fill="#39D353"/>
<path d="M760 35H753C751.895 35 751 35.8954 751 37V44C751 45.1046 751.895 46 753 46H760C761.105 46 762 45.1046 762 44V37C762 35.8954 761.105 35 760 35Z" fill="#39D353"/>
<path d="M760 50H753C751.895 50 751 50.8954 751 52V59C751 60.1046 751.895 61 753 61H760C761.105 61 762 60.1046 762 59V52C762 50.8954 761.105 50 760 50Z" fill="#39D353"/>
<path d="M760 65H753C751.895 65 751 65.8954 751 67V74C751 75.1046 751.895 76 753 76H760C761.105 76 762 75.1046 762 74V67C762 65.8954 761.105 65 760 65Z" fill="#39D353"/>
<path d="M760 80H753C751.895 80 751 80.8954 751 82V89C751 90.1046 751.895 91 753 91H760C761.105 91 762 90.1046 762 89V82C762 80.8954 761.105 80 760 80Z" fill="#39D353"/>
<path d="M760 95H753C751.895 95 751 95.8954 751 97V104C751 105.105 751.895 106 753 106H760C761.105 106 762 105.105 762 104V97C762 95.8954 761.105 95 760 95Z" fill="#39D353"/>
<path d="M760 110H753C751.895 110 751 110.895 751 112V119C751 120.105 751.895 121 753 121H760C761.105 121 762 120.105 762 119V112C762 110.895 761.105 110 760 110Z" fill="#39D353"/>
<path d="M775 20H768C766.895 20 766 20.8954 766 22V29C766 30.1046 766.895 31 768 31H775C776.105 31 777 30.1046 777 29V22C777 20.8954 776.105 20 775 20Z" fill="#39D353"/>
<path d="M775 35H768C766.895 35 766 35.8954 766 37V44C766 45.1046 766.895 46 768 46H775C776.105 46 777 45.1046 777 44V37C777 35.8954 776.105 35 775 35Z" fill="#0E4429"/>
<path d="M775 50H768C766.895 50 766 50.8954 766 52V59C766 60.1046 766.895 61 768 61H775C776.105 61 777 60.1046 777 59V52C777 50.8954 776.105 50 775 50Z" fill="#0E4429"/>
<path d="M775 65H768C766.895 65 766 65.8954 766 67V74C766 75.1046 766.895 76 768 76H775C776.105 76 777 75.1046 777 74V67C777 65.8954 776.105 65 775 65Z" fill="#0E4429"/>
<path d="M775 80H768C766.895 80 766 80.8954 766 82V89C766 90.1046 766.895 91 768 91H775C776.105 91 777 90.1046 777 89V82C777 80.8954 776.105 80 775 80Z" fill="#0E4429"/>
<path d="M775 95H768C766.895 95 766 95.8954 766 97V104C766 105.105 766.895 106 768 106H775C776.105 106 777 105.105 777 104V97C777 95.8954 776.105 95 775 95Z" fill="#0E4429"/>
<path d="M775 110H768C766.895 110 766 110.895 766 112V119C766 120.105 766.895 121 768 121H775C776.105 121 777 120.105 777 119V112C777 110.895 776.105 110 775 110Z" fill="#0E4429"/>
<path d="M790 20H783C781.895 20 781 20.8954 781 22V29C781 30.1046 781.895 31 783 31H790C791.105 31 792 30.1046 792 29V22C792 20.8954 791.105 20 790 20Z" fill="#39D353"/>
<path d="M790 35H783C781.895 35 781 35.8954 781 37V44C781 45.1046 781.895 46 783 46H790C791.105 46 792 45.1046 792 44V37C792 35.8954 791.105 35 790 35Z" fill="#0E4429"/>
<path d="M790 50H783C781.895 50 781 50.8954 781 52V59C781 60.1046 781.895 61 783 61H790C791.105 61 792 60.1046 792 59V52C792 50.8954 791.105 50 790 50Z" fill="#0E4429"/>
<path d="M790 65H783C781.895 65 781 65.8954 781 67V74C781 75.1046 781.895 76 783 76H790C791.105 76 792 75.1046 792 74V67C792 65.8954 791.105 65 790 65Z" fill="#0E4429"/>
<path d="M790 80H783C781.895 80 781 80.8954 781 82V89C781 90.1046 781.895 91 783 91H790C791.105 91 792 90.1046 792 89V82C792 80.8954 791.105 80 790 80Z" fill="#0E4429"/>
<path d="M790 95H783C781.895 95 781 95.8954 781 97V104C781 105.105 781.895 106 783 106H790C791.105 106 792 105.105 792 104V97C792 95.8954 791.105 95 790 95Z" fill="#0E4429"/>
<path d="M790 110H783C781.895 110 781 110.895 781 112V119C781 120.105 781.895 121 783 121H790C791.105 121 792 120.105 792 119V112C792 110.895 791.105 110 790 110Z" fill="#0E4429"/>
<path d="M805 20H798C796.895 20 796 20.8954 796 22V29C796 30.1046 796.895 31 798 31H805C806.105 31 807 30.1046 807 29V22C807 20.8954 806.105 20 805 20Z" fill="#0E4429"/>
<path d="M805 35H798C796.895 35 796 35.8954 796 37V44C796 45.1046 796.895 46 798 46H805C806.105 46 807 45.1046 807 44V37C807 35.8954 806.105 35 805 35Z" fill="#0E4429"/>
<path d="M805 50H798C796.895 50 796 50.8954 796 52V59C796 60.1046 796.895 61 798 61H805C806.105 61 807 60.1046 807 59V52C807 50.8954 806.105 50 805 50Z" fill="#0E4429"/>
<path d="M805 65H798C796.895 65 796 65.8954 796 67V74C796 75.1046 796.895 76 798 76H805C806.105 76 807 75.1046 807 74V67C807 65.8954 806.105 65 805 65Z" fill="#0E4429"/>
<path d="M805 80H798C796.895 80 796 80.8954 796 82V89C796 90.1046 796.895 91 798 91H805C806.105 91 807 90.1046 807 89V82C807 80.8954 806.105 80 805 80Z" fill="#0E4429"/>
<path d="M805 95H798C796.895 95 796 95.8954 796 97V104C796 105.105 796.895 106 798 106H805C806.105 106 807 105.105 807 104V97C807 95.8954 806.105 95 805 95Z" fill="#0E4429"/>
<path d="M805 110H798C796.895 110 796 110.895 796 112V119C796 120.105 796.895 121 798 121H805C806.105 121 807 120.105 807 119V112C807 110.895 806.105 110 805 110Z" fill="#0E4429"/>
<path d="M820 20H813C811.895 20 811 20.8954 811 22V29C811 30.1046 811.895 31 813 31H820C821.105 31 822 30.1046 822 29V22C822 20.8954 821.105 20 820 20Z" fill="#0E4429"/>
<path d="M820 35H813C811.895 35 811 35.8954 811 37V44C811 45.1046 811.895 46 813 46H820C821.105 46 822 45.1046 822 44V37C822 35.8954 821.105 35 820 35Z" fill="#0E4429"/>
<path d="M820 50H813C811.895 50 811 50.8954 811 52V59C811 60.1046 811.895 61 813 61H820C821.105 61 822 60.1046 822 59V52C822 50.8954 821.105 50 820 50Z" fill="#0E4429"/>
<path d="M820 65H813C811.895 65 811 65.8954 811 67V74C811 75.1046 811.895 76 813 76H820C821.105 76 822 75.1046 822 74V67C822 65.8954 821.105 65 820 65Z" fill="#0E4429"/>
<path d="M820 80H813C811.895 80 811 80.8954 811 82V89C811 90.1046 811.895 91 813 91H820C821.105 91 822 90.1046 822 89V82C822 80.8954 821.105 80 820 80Z" fill="#0E4429"/>
<path d="M38.9773 3.27273V12H37.9545L33.1989 5.14773H33.1136V12H32.0568V3.27273H33.0795L37.8523 10.142H37.9375V3.27273H38.9773ZM43.6147 12.1364C43.0238 12.1364 42.5053 11.9957 42.0593 11.7145C41.6161 11.4332 41.2695 11.0398 41.0195 10.5341C40.7724 10.0284 40.6488 9.4375 40.6488 8.76136C40.6488 8.07955 40.7724 7.48437 41.0195 6.97585C41.2695 6.46733 41.6161 6.07244 42.0593 5.79119C42.5053 5.50994 43.0238 5.36932 43.6147 5.36932C44.2056 5.36932 44.7227 5.50994 45.1658 5.79119C45.6119 6.07244 45.9585 6.46733 46.2056 6.97585C46.4556 7.48437 46.5806 8.07955 46.5806 8.76136C46.5806 9.4375 46.4556 10.0284 46.2056 10.5341C45.9585 11.0398 45.6119 11.4332 45.1658 11.7145C44.7227 11.9957 44.2056 12.1364 43.6147 12.1364ZM43.6147 11.233C44.0636 11.233 44.4329 11.1179 44.7227 10.8878C45.0124 10.6577 45.2269 10.3551 45.3661 9.98011C45.5053 9.60511 45.5749 9.19886 45.5749 8.76136C45.5749 8.32386 45.5053 7.91619 45.3661 7.53835C45.2269 7.16051 45.0124 6.85511 44.7227 6.62216C44.4329 6.3892 44.0636 6.27273 43.6147 6.27273C43.1658 6.27273 42.7965 6.3892 42.5067 6.62216C42.217 6.85511 42.0025 7.16051 41.8633 7.53835C41.7241 7.91619 41.6545 8.32386 41.6545 8.76136C41.6545 9.19886 41.7241 9.60511 41.8633 9.98011C42.0025 10.3551 42.217 10.6577 42.5067 10.8878C42.7965 11.1179 43.1658 11.233 43.6147 11.233ZM53.2337 5.45455L50.8132 12H49.7905L47.37 5.45455H48.4609L50.2678 10.6705H50.3359L52.1428 5.45455H53.2337Z" fill="#0E4429"/>
<path d="M94.75 12H92.0568V3.27273H94.8693C95.7159 3.27273 96.4403 3.44744 97.0426 3.79688C97.6449 4.14347 98.1065 4.64205 98.4276 5.29261C98.7486 5.94034 98.9091 6.71591 98.9091 7.61932C98.9091 8.52841 98.7472 9.31108 98.4233 9.96733C98.0994 10.6207 97.6278 11.1236 97.0085 11.4759C96.3892 11.8253 95.6364 12 94.75 12ZM93.1136 11.0625H94.6818C95.4034 11.0625 96.0014 10.9233 96.4759 10.6449C96.9503 10.3665 97.304 9.97017 97.5369 9.45597C97.7699 8.94176 97.8864 8.32955 97.8864 7.61932C97.8864 6.91477 97.7713 6.30824 97.5412 5.79972C97.3111 5.28835 96.9673 4.89631 96.5099 4.62358C96.0526 4.34801 95.483 4.21023 94.8011 4.21023H93.1136V11.0625ZM103.29 12.1364C102.659 12.1364 102.115 11.9972 101.658 11.7188C101.203 11.4375 100.852 11.0455 100.605 10.5426C100.361 10.0369 100.239 9.44886 100.239 8.77841C100.239 8.10795 100.361 7.51705 100.605 7.00568C100.852 6.49148 101.196 6.09091 101.636 5.80398C102.08 5.5142 102.597 5.36932 103.188 5.36932C103.528 5.36932 103.865 5.42614 104.197 5.53977C104.53 5.65341 104.832 5.83807 105.105 6.09375C105.378 6.34659 105.595 6.68182 105.757 7.09943C105.919 7.51705 106 8.03125 106 8.64205V9.06818H100.955V8.19886H104.977C104.977 7.82955 104.903 7.5 104.756 7.21023C104.611 6.92045 104.403 6.69176 104.134 6.52415C103.866 6.35653 103.551 6.27273 103.188 6.27273C102.787 6.27273 102.44 6.37216 102.148 6.57102C101.858 6.76705 101.635 7.02273 101.479 7.33807C101.322 7.65341 101.244 7.99148 101.244 8.35227V8.93182C101.244 9.42614 101.33 9.84517 101.5 10.1889C101.673 10.5298 101.913 10.7898 102.22 10.9688C102.527 11.1449 102.884 11.233 103.29 11.233C103.554 11.233 103.793 11.196 104.006 11.1222C104.222 11.0455 104.408 10.9318 104.564 10.7812C104.72 10.6278 104.841 10.4375 104.926 10.2102L105.898 10.483C105.795 10.8125 105.624 11.1023 105.382 11.3523C105.141 11.5994 104.842 11.7926 104.487 11.9318C104.132 12.0682 103.733 12.1364 103.29 12.1364ZM110.189 12.1364C109.575 12.1364 109.047 11.9915 108.604 11.7017C108.161 11.4119 107.82 11.0128 107.581 10.5043C107.342 9.99574 107.223 9.41477 107.223 8.76136C107.223 8.09659 107.345 7.50994 107.589 7.00142C107.837 6.49006 108.18 6.09091 108.621 5.80398C109.064 5.5142 109.581 5.36932 110.172 5.36932C110.632 5.36932 111.047 5.45455 111.416 5.625C111.786 5.79545 112.088 6.03409 112.324 6.34091C112.56 6.64773 112.706 7.00568 112.763 7.41477H111.757C111.68 7.11648 111.51 6.85227 111.246 6.62216C110.984 6.3892 110.632 6.27273 110.189 6.27273C109.797 6.27273 109.453 6.375 109.158 6.57955C108.865 6.78125 108.636 7.06676 108.472 7.43608C108.31 7.80256 108.229 8.23295 108.229 8.72727C108.229 9.23295 108.308 9.6733 108.467 10.0483C108.629 10.4233 108.857 10.7145 109.149 10.9219C109.445 11.1293 109.791 11.233 110.189 11.233C110.45 11.233 110.688 11.1875 110.901 11.0966C111.114 11.0057 111.294 10.875 111.442 10.7045C111.589 10.5341 111.695 10.3295 111.757 10.0909H112.763C112.706 10.4773 112.565 10.8253 112.341 11.1349C112.119 11.4418 111.825 11.6861 111.459 11.8679C111.095 12.0469 110.672 12.1364 110.189 12.1364Z" fill="#0E4429"/>
<path d="M155.398 3.27273H156.455V9.51136C156.455 10.0682 156.352 10.5412 156.148 10.9304C155.943 11.3196 155.655 11.6151 155.283 11.8168C154.911 12.0185 154.472 12.1193 153.966 12.1193C153.489 12.1193 153.064 12.0327 152.692 11.8594C152.32 11.6832 152.027 11.4332 151.814 11.1094C151.601 10.7855 151.494 10.4006 151.494 9.95455H152.534C152.534 10.2017 152.595 10.4176 152.717 10.6023C152.842 10.7841 153.013 10.9261 153.229 11.0284C153.445 11.1307 153.69 11.1818 153.966 11.1818C154.27 11.1818 154.528 11.1179 154.741 10.9901C154.955 10.8622 155.116 10.6747 155.227 10.4276C155.341 10.1776 155.398 9.87216 155.398 9.51136V3.27273ZM160.362 12.1534C159.947 12.1534 159.571 12.0753 159.233 11.919C158.895 11.7599 158.626 11.5312 158.428 11.233C158.229 10.9318 158.129 10.5682 158.129 10.142C158.129 9.76705 158.203 9.46307 158.351 9.23011C158.499 8.99432 158.696 8.80966 158.943 8.67614C159.19 8.54261 159.463 8.44318 159.761 8.37784C160.063 8.30966 160.365 8.25568 160.669 8.21591C161.067 8.16477 161.389 8.12642 161.636 8.10085C161.886 8.07244 162.068 8.02557 162.182 7.96023C162.298 7.89489 162.357 7.78125 162.357 7.61932V7.58523C162.357 7.16477 162.241 6.83807 162.011 6.60511C161.784 6.37216 161.439 6.25568 160.976 6.25568C160.496 6.25568 160.119 6.3608 159.847 6.57102C159.574 6.78125 159.382 7.00568 159.271 7.24432L158.317 6.90341C158.487 6.50568 158.714 6.19602 158.999 5.97443C159.286 5.75 159.598 5.59375 159.936 5.50568C160.277 5.41477 160.612 5.36932 160.942 5.36932C161.152 5.36932 161.393 5.39489 161.666 5.44602C161.942 5.49432 162.207 5.59517 162.463 5.74858C162.722 5.90199 162.936 6.13352 163.107 6.44318C163.277 6.75284 163.362 7.16761 163.362 7.6875V12H162.357V11.1136H162.305C162.237 11.2557 162.124 11.4077 161.964 11.5696C161.805 11.7315 161.594 11.8693 161.33 11.983C161.065 12.0966 160.743 12.1534 160.362 12.1534ZM160.516 11.25C160.913 11.25 161.249 11.1719 161.521 11.0156C161.797 10.8594 162.004 10.6577 162.143 10.4105C162.286 10.1634 162.357 9.90341 162.357 9.63068V8.71023C162.314 8.76136 162.22 8.80824 162.075 8.85085C161.933 8.89062 161.768 8.92614 161.581 8.95739C161.396 8.9858 161.216 9.01136 161.04 9.03409C160.866 9.05398 160.726 9.07102 160.618 9.08523C160.357 9.11932 160.112 9.17472 159.885 9.25142C159.661 9.32528 159.479 9.4375 159.339 9.58807C159.203 9.7358 159.135 9.9375 159.135 10.1932C159.135 10.5426 159.264 10.8068 159.523 10.9858C159.784 11.1619 160.115 11.25 160.516 11.25ZM166.203 8.0625V12H165.198V5.45455H166.169V6.47727H166.255C166.408 6.14489 166.641 5.87784 166.953 5.67614C167.266 5.47159 167.669 5.36932 168.164 5.36932C168.607 5.36932 168.995 5.46023 169.327 5.64205C169.659 5.82102 169.918 6.09375 170.103 6.46023C170.287 6.82386 170.38 7.28409 170.38 7.84091V12H169.374V7.90909C169.374 7.39489 169.24 6.99432 168.973 6.70739C168.706 6.41761 168.34 6.27273 167.874 6.27273C167.553 6.27273 167.266 6.34233 167.013 6.48153C166.763 6.62074 166.566 6.82386 166.421 7.09091C166.276 7.35795 166.203 7.68182 166.203 8.0625Z" fill="#0E4429"/>
<path d="M227.057 12V3.27273H232.29V4.21023H228.114V7.15909H231.898V8.09659H228.114V12H227.057ZM236.227 12.1364C235.597 12.1364 235.053 11.9972 234.595 11.7188C234.141 11.4375 233.79 11.0455 233.543 10.5426C233.298 10.0369 233.176 9.44886 233.176 8.77841C233.176 8.10795 233.298 7.51705 233.543 7.00568C233.79 6.49148 234.134 6.09091 234.574 5.80398C235.017 5.5142 235.534 5.36932 236.125 5.36932C236.466 5.36932 236.803 5.42614 237.135 5.53977C237.467 5.65341 237.77 5.83807 238.043 6.09375C238.315 6.34659 238.533 6.68182 238.695 7.09943C238.857 7.51705 238.938 8.03125 238.938 8.64205V9.06818H233.892V8.19886H237.915C237.915 7.82955 237.841 7.5 237.693 7.21023C237.548 6.92045 237.341 6.69176 237.071 6.52415C236.804 6.35653 236.489 6.27273 236.125 6.27273C235.724 6.27273 235.378 6.37216 235.085 6.57102C234.795 6.76705 234.572 7.02273 234.416 7.33807C234.26 7.65341 234.182 7.99148 234.182 8.35227V8.93182C234.182 9.42614 234.267 9.84517 234.438 10.1889C234.611 10.5298 234.851 10.7898 235.158 10.9688C235.464 11.1449 235.821 11.233 236.227 11.233C236.491 11.233 236.73 11.196 236.943 11.1222C237.159 11.0455 237.345 10.9318 237.501 10.7812C237.658 10.6278 237.778 10.4375 237.864 10.2102L238.835 10.483C238.733 10.8125 238.561 11.1023 238.32 11.3523C238.078 11.5994 237.78 11.7926 237.425 11.9318C237.07 12.0682 236.67 12.1364 236.227 12.1364ZM240.604 12V3.27273H241.609V6.49432H241.695C241.768 6.38068 241.871 6.2358 242.001 6.05966C242.135 5.88068 242.325 5.72159 242.572 5.58239C242.822 5.44034 243.161 5.36932 243.587 5.36932C244.138 5.36932 244.624 5.5071 245.044 5.78267C245.464 6.05824 245.793 6.44886 246.028 6.95455C246.264 7.46023 246.382 8.05682 246.382 8.74432C246.382 9.4375 246.264 10.0384 246.028 10.5469C245.793 11.0526 245.466 11.4446 245.048 11.723C244.631 11.9986 244.149 12.1364 243.604 12.1364C243.183 12.1364 242.847 12.0668 242.594 11.9276C242.341 11.7855 242.146 11.625 242.01 11.446C241.874 11.2642 241.768 11.1136 241.695 10.9943H241.575V12H240.604ZM241.592 8.72727C241.592 9.22159 241.665 9.65767 241.81 10.0355C241.955 10.4105 242.166 10.7045 242.445 10.9176C242.723 11.1278 243.064 11.233 243.467 11.233C243.888 11.233 244.239 11.1222 244.52 10.9006C244.804 10.6761 245.017 10.375 245.159 9.99716C245.304 9.61648 245.376 9.19318 245.376 8.72727C245.376 8.26705 245.305 7.85227 245.163 7.48295C245.024 7.1108 244.813 6.81676 244.528 6.60085C244.247 6.3821 243.893 6.27273 243.467 6.27273C243.058 6.27273 242.714 6.37642 242.436 6.58381C242.158 6.78835 241.947 7.07528 241.805 7.4446C241.663 7.81108 241.592 8.23864 241.592 8.72727Z" fill="#0E4429"/>
<path d="M287.057 3.27273H288.318L291.284 10.517H291.386L294.352 3.27273H295.614V12H294.625V5.36932H294.54L291.812 12H290.858L288.131 5.36932H288.045V12H287.057V3.27273ZM299.522 12.1534C299.108 12.1534 298.731 12.0753 298.393 11.919C298.055 11.7599 297.787 11.5312 297.588 11.233C297.389 10.9318 297.289 10.5682 297.289 10.142C297.289 9.76705 297.363 9.46307 297.511 9.23011C297.659 8.99432 297.856 8.80966 298.103 8.67614C298.35 8.54261 298.623 8.44318 298.922 8.37784C299.223 8.30966 299.525 8.25568 299.829 8.21591C300.227 8.16477 300.549 8.12642 300.797 8.10085C301.047 8.07244 301.228 8.02557 301.342 7.96023C301.458 7.89489 301.517 7.78125 301.517 7.61932V7.58523C301.517 7.16477 301.402 6.83807 301.172 6.60511C300.944 6.37216 300.599 6.25568 300.136 6.25568C299.656 6.25568 299.279 6.3608 299.007 6.57102C298.734 6.78125 298.542 7.00568 298.431 7.24432L297.477 6.90341C297.647 6.50568 297.875 6.19602 298.159 5.97443C298.446 5.75 298.758 5.59375 299.096 5.50568C299.437 5.41477 299.772 5.36932 300.102 5.36932C300.312 5.36932 300.554 5.39489 300.826 5.44602C301.102 5.49432 301.368 5.59517 301.623 5.74858C301.882 5.90199 302.096 6.13352 302.267 6.44318C302.437 6.75284 302.522 7.16761 302.522 7.6875V12H301.517V11.1136H301.466C301.397 11.2557 301.284 11.4077 301.125 11.5696C300.966 11.7315 300.754 11.8693 300.49 11.983C300.225 12.0966 299.903 12.1534 299.522 12.1534ZM299.676 11.25C300.074 11.25 300.409 11.1719 300.681 11.0156C300.957 10.8594 301.164 10.6577 301.304 10.4105C301.446 10.1634 301.517 9.90341 301.517 9.63068V8.71023C301.474 8.76136 301.38 8.80824 301.235 8.85085C301.093 8.89062 300.929 8.92614 300.741 8.95739C300.556 8.9858 300.376 9.01136 300.2 9.03409C300.027 9.05398 299.886 9.07102 299.778 9.08523C299.517 9.11932 299.272 9.17472 299.045 9.25142C298.821 9.32528 298.639 9.4375 298.5 9.58807C298.363 9.7358 298.295 9.9375 298.295 10.1932C298.295 10.5426 298.424 10.8068 298.683 10.9858C298.944 11.1619 299.275 11.25 299.676 11.25ZM304.358 12V5.45455H305.33V6.44318H305.398C305.517 6.11932 305.733 5.85653 306.045 5.65483C306.358 5.45312 306.71 5.35227 307.102 5.35227C307.176 5.35227 307.268 5.35369 307.379 5.35653C307.49 5.35937 307.574 5.36364 307.631 5.36932V6.39205C307.597 6.38352 307.518 6.37074 307.396 6.35369C307.277 6.33381 307.151 6.32386 307.017 6.32386C306.699 6.32386 306.415 6.39062 306.165 6.52415C305.918 6.65483 305.722 6.83665 305.577 7.0696C305.435 7.29972 305.364 7.5625 305.364 7.85795V12H304.358Z" fill="#0E4429"/>
<path d="M347.415 12H346.307L349.511 3.27273H350.602L353.807 12H352.699L350.091 4.65341H350.023L347.415 12ZM347.824 8.59091H352.29V9.52841H347.824V8.59091ZM355.03 14.4545V5.45455H356.001V6.49432H356.121C356.195 6.38068 356.297 6.2358 356.428 6.05966C356.561 5.88068 356.751 5.72159 356.999 5.58239C357.249 5.44034 357.587 5.36932 358.013 5.36932C358.564 5.36932 359.05 5.5071 359.47 5.78267C359.891 6.05824 360.219 6.44886 360.455 6.95455C360.69 7.46023 360.808 8.05682 360.808 8.74432C360.808 9.4375 360.69 10.0384 360.455 10.5469C360.219 11.0526 359.892 11.4446 359.474 11.723C359.057 11.9986 358.575 12.1364 358.03 12.1364C357.609 12.1364 357.273 12.0668 357.02 11.9276C356.767 11.7855 356.572 11.625 356.436 11.446C356.3 11.2642 356.195 11.1136 356.121 10.9943H356.036V14.4545H355.03ZM356.018 8.72727C356.018 9.22159 356.091 9.65767 356.236 10.0355C356.381 10.4105 356.592 10.7045 356.871 10.9176C357.149 11.1278 357.49 11.233 357.893 11.233C358.314 11.233 358.665 11.1222 358.946 10.9006C359.23 10.6761 359.443 10.375 359.585 9.99716C359.73 9.61648 359.803 9.19318 359.803 8.72727C359.803 8.26705 359.732 7.85227 359.589 7.48295C359.45 7.1108 359.239 6.81676 358.955 6.60085C358.673 6.3821 358.32 6.27273 357.893 6.27273C357.484 6.27273 357.141 6.37642 356.862 6.58381C356.584 6.78835 356.374 7.07528 356.232 7.4446C356.089 7.81108 356.018 8.23864 356.018 8.72727ZM362.342 12V5.45455H363.314V6.44318H363.382C363.501 6.11932 363.717 5.85653 364.03 5.65483C364.342 5.45312 364.695 5.35227 365.087 5.35227C365.161 5.35227 365.253 5.35369 365.364 5.35653C365.474 5.35937 365.558 5.36364 365.615 5.36932V6.39205C365.581 6.38352 365.503 6.37074 365.381 6.35369C365.261 6.33381 365.135 6.32386 365.001 6.32386C364.683 6.32386 364.399 6.39062 364.149 6.52415C363.902 6.65483 363.706 6.83665 363.561 7.0696C363.419 7.29972 363.348 7.5625 363.348 7.85795V12H362.342Z" fill="#0E4429"/>
<path d="M407.057 3.27273H408.318L411.284 10.517H411.386L414.352 3.27273H415.614V12H414.625V5.36932H414.54L411.812 12H410.858L408.131 5.36932H408.045V12H407.057V3.27273ZM419.522 12.1534C419.108 12.1534 418.731 12.0753 418.393 11.919C418.055 11.7599 417.787 11.5312 417.588 11.233C417.389 10.9318 417.289 10.5682 417.289 10.142C417.289 9.76705 417.363 9.46307 417.511 9.23011C417.659 8.99432 417.856 8.80966 418.103 8.67614C418.35 8.54261 418.623 8.44318 418.922 8.37784C419.223 8.30966 419.525 8.25568 419.829 8.21591C420.227 8.16477 420.549 8.12642 420.797 8.10085C421.047 8.07244 421.228 8.02557 421.342 7.96023C421.458 7.89489 421.517 7.78125 421.517 7.61932V7.58523C421.517 7.16477 421.402 6.83807 421.172 6.60511C420.944 6.37216 420.599 6.25568 420.136 6.25568C419.656 6.25568 419.279 6.3608 419.007 6.57102C418.734 6.78125 418.542 7.00568 418.431 7.24432L417.477 6.90341C417.647 6.50568 417.875 6.19602 418.159 5.97443C418.446 5.75 418.758 5.59375 419.096 5.50568C419.437 5.41477 419.772 5.36932 420.102 5.36932C420.312 5.36932 420.554 5.39489 420.826 5.44602C421.102 5.49432 421.368 5.59517 421.623 5.74858C421.882 5.90199 422.096 6.13352 422.267 6.44318C422.437 6.75284 422.522 7.16761 422.522 7.6875V12H421.517V11.1136H421.466C421.397 11.2557 421.284 11.4077 421.125 11.5696C420.966 11.7315 420.754 11.8693 420.49 11.983C420.225 12.0966 419.903 12.1534 419.522 12.1534ZM419.676 11.25C420.074 11.25 420.409 11.1719 420.681 11.0156C420.957 10.8594 421.164 10.6577 421.304 10.4105C421.446 10.1634 421.517 9.90341 421.517 9.63068V8.71023C421.474 8.76136 421.38 8.80824 421.235 8.85085C421.093 8.89062 420.929 8.92614 420.741 8.95739C420.556 8.9858 420.376 9.01136 420.2 9.03409C420.027 9.05398 419.886 9.07102 419.778 9.08523C419.517 9.11932 419.272 9.17472 419.045 9.25142C418.821 9.32528 418.639 9.4375 418.5 9.58807C418.363 9.7358 418.295 9.9375 418.295 10.1932C418.295 10.5426 418.424 10.8068 418.683 10.9858C418.944 11.1619 419.275 11.25 419.676 11.25ZM424.771 14.4545C424.601 14.4545 424.449 14.4403 424.315 14.4119C424.182 14.3864 424.089 14.3608 424.038 14.3352L424.294 13.4489C424.538 13.5114 424.754 13.5341 424.942 13.517C425.129 13.5 425.295 13.4162 425.44 13.2656C425.588 13.1179 425.723 12.8778 425.845 12.5455L426.033 12.0341L423.612 5.45455H424.703L426.51 10.6705H426.578L428.385 5.45455H429.476L426.697 12.9545C426.572 13.2926 426.418 13.5724 426.233 13.794C426.048 14.0185 425.834 14.1847 425.589 14.2926C425.348 14.4006 425.075 14.4545 424.771 14.4545Z" fill="#0E4429"/>
<path d="M485.398 3.27273H486.455V9.51136C486.455 10.0682 486.352 10.5412 486.148 10.9304C485.943 11.3196 485.655 11.6151 485.283 11.8168C484.911 12.0185 484.472 12.1193 483.966 12.1193C483.489 12.1193 483.064 12.0327 482.692 11.8594C482.32 11.6832 482.027 11.4332 481.814 11.1094C481.601 10.7855 481.494 10.4006 481.494 9.95455H482.534C482.534 10.2017 482.595 10.4176 482.717 10.6023C482.842 10.7841 483.013 10.9261 483.229 11.0284C483.445 11.1307 483.69 11.1818 483.966 11.1818C484.27 11.1818 484.528 11.1179 484.741 10.9901C484.955 10.8622 485.116 10.6747 485.227 10.4276C485.341 10.1776 485.398 9.87216 485.398 9.51136V3.27273ZM492.561 9.32386V5.45455H493.567V12H492.561V10.892H492.493C492.339 11.2244 492.101 11.5071 491.777 11.7401C491.453 11.9702 491.044 12.0852 490.55 12.0852C490.141 12.0852 489.777 11.9957 489.459 11.8168C489.141 11.6349 488.891 11.3622 488.709 10.9986C488.527 10.6321 488.436 10.1705 488.436 9.61364V5.45455H489.442V9.54545C489.442 10.0227 489.575 10.4034 489.842 10.6875C490.112 10.9716 490.456 11.1136 490.874 11.1136C491.124 11.1136 491.378 11.0497 491.636 10.9219C491.898 10.794 492.116 10.598 492.293 10.3338C492.472 10.0696 492.561 9.73295 492.561 9.32386ZM496.414 8.0625V12H495.409V5.45455H496.38V6.47727H496.466C496.619 6.14489 496.852 5.87784 497.164 5.67614C497.477 5.47159 497.88 5.36932 498.375 5.36932C498.818 5.36932 499.206 5.46023 499.538 5.64205C499.87 5.82102 500.129 6.09375 500.314 6.46023C500.498 6.82386 500.591 7.28409 500.591 7.84091V12H499.585V7.90909C499.585 7.39489 499.451 6.99432 499.184 6.70739C498.917 6.41761 498.551 6.27273 498.085 6.27273C497.764 6.27273 497.477 6.34233 497.224 6.48153C496.974 6.62074 496.777 6.82386 496.632 7.09091C496.487 7.35795 496.414 7.68182 496.414 8.0625Z" fill="#0E4429"/>
<path d="M545.398 3.27273H546.455V9.51136C546.455 10.0682 546.352 10.5412 546.148 10.9304C545.943 11.3196 545.655 11.6151 545.283 11.8168C544.911 12.0185 544.472 12.1193 543.966 12.1193C543.489 12.1193 543.064 12.0327 542.692 11.8594C542.32 11.6832 542.027 11.4332 541.814 11.1094C541.601 10.7855 541.494 10.4006 541.494 9.95455H542.534C542.534 10.2017 542.595 10.4176 542.717 10.6023C542.842 10.7841 543.013 10.9261 543.229 11.0284C543.445 11.1307 543.69 11.1818 543.966 11.1818C544.27 11.1818 544.528 11.1179 544.741 10.9901C544.955 10.8622 545.116 10.6747 545.227 10.4276C545.341 10.1776 545.398 9.87216 545.398 9.51136V3.27273ZM552.561 9.32386V5.45455H553.567V12H552.561V10.892H552.493C552.339 11.2244 552.101 11.5071 551.777 11.7401C551.453 11.9702 551.044 12.0852 550.55 12.0852C550.141 12.0852 549.777 11.9957 549.459 11.8168C549.141 11.6349 548.891 11.3622 548.709 10.9986C548.527 10.6321 548.436 10.1705 548.436 9.61364V5.45455H549.442V9.54545C549.442 10.0227 549.575 10.4034 549.842 10.6875C550.112 10.9716 550.456 11.1136 550.874 11.1136C551.124 11.1136 551.378 11.0497 551.636 10.9219C551.898 10.794 552.116 10.598 552.293 10.3338C552.472 10.0696 552.561 9.73295 552.561 9.32386ZM556.414 3.27273V12H555.409V3.27273H556.414Z" fill="#0E4429"/>
<path d="M617.415 12H616.307L619.511 3.27273H620.602L623.807 12H622.699L620.091 4.65341H620.023L617.415 12ZM617.824 8.59091H622.29V9.52841H617.824V8.59091ZM629.155 9.32386V5.45455H630.161V12H629.155V10.892H629.087C628.933 11.2244 628.695 11.5071 628.371 11.7401C628.047 11.9702 627.638 12.0852 627.143 12.0852C626.734 12.0852 626.371 11.9957 626.053 11.8168C625.734 11.6349 625.484 11.3622 625.303 10.9986C625.121 10.6321 625.03 10.1705 625.03 9.61364V5.45455H626.036V9.54545C626.036 10.0227 626.169 10.4034 626.436 10.6875C626.706 10.9716 627.05 11.1136 627.467 11.1136C627.717 11.1136 627.972 11.0497 628.23 10.9219C628.491 10.794 628.71 10.598 628.886 10.3338C629.065 10.0696 629.155 9.73295 629.155 9.32386ZM634.645 14.5909C634.159 14.5909 633.741 14.5284 633.392 14.4034C633.042 14.2812 632.751 14.1193 632.518 13.9176C632.288 13.7188 632.105 13.5057 631.968 13.2784L632.77 12.7159C632.86 12.8352 632.975 12.9716 633.115 13.125C633.254 13.2812 633.444 13.4162 633.686 13.5298C633.93 13.6463 634.25 13.7045 634.645 13.7045C635.173 13.7045 635.609 13.5767 635.953 13.321C636.297 13.0653 636.468 12.6648 636.468 12.1193V10.7898H636.383C636.309 10.9091 636.204 11.0568 636.068 11.233C635.934 11.4062 635.741 11.5611 635.488 11.6974C635.238 11.831 634.9 11.8977 634.474 11.8977C633.946 11.8977 633.471 11.7727 633.051 11.5227C632.633 11.2727 632.302 10.9091 632.058 10.4318C631.816 9.95455 631.696 9.375 631.696 8.69318C631.696 8.02273 631.814 7.43892 632.049 6.94176C632.285 6.44176 632.613 6.0554 633.034 5.78267C633.454 5.5071 633.94 5.36932 634.491 5.36932C634.917 5.36932 635.255 5.44034 635.505 5.58239C635.758 5.72159 635.951 5.88068 636.085 6.05966C636.221 6.2358 636.326 6.38068 636.4 6.49432H636.502V5.45455H637.474V12.1875C637.474 12.75 637.346 13.2074 637.091 13.5597C636.838 13.9148 636.497 14.1747 636.068 14.3395C635.642 14.5071 635.167 14.5909 634.645 14.5909ZM634.61 10.9943C635.014 10.9943 635.355 10.902 635.633 10.7173C635.912 10.5327 636.123 10.267 636.268 9.92045C636.413 9.57386 636.485 9.15909 636.485 8.67614C636.485 8.20455 636.414 7.78835 636.272 7.42756C636.13 7.06676 635.92 6.78409 635.642 6.57955C635.363 6.375 635.02 6.27273 634.61 6.27273C634.184 6.27273 633.829 6.38068 633.545 6.59659C633.264 6.8125 633.052 7.10227 632.91 7.46591C632.771 7.82955 632.701 8.23295 632.701 8.67614C632.701 9.13068 632.772 9.53267 632.914 9.8821C633.059 10.2287 633.272 10.5014 633.554 10.7003C633.838 10.8963 634.19 10.9943 634.61 10.9943Z" fill="#0E4429"/>
<path d="M681.83 5.45455C681.778 5.02273 681.571 4.6875 681.207 4.44886C680.844 4.21023 680.398 4.09091 679.869 4.09091C679.483 4.09091 679.145 4.15341 678.855 4.27841C678.568 4.40341 678.344 4.57528 678.182 4.79403C678.023 5.01278 677.943 5.26136 677.943 5.53977C677.943 5.77273 677.999 5.97301 678.109 6.14062C678.223 6.3054 678.368 6.44318 678.544 6.55398C678.72 6.66193 678.905 6.75142 679.098 6.82244C679.291 6.89062 679.469 6.94602 679.631 6.98864L680.517 7.22727C680.744 7.28693 680.997 7.36932 681.276 7.47443C681.557 7.57955 681.825 7.72301 682.081 7.90483C682.339 8.08381 682.553 8.31392 682.72 8.59517C682.888 8.87642 682.972 9.22159 682.972 9.63068C682.972 10.1023 682.848 10.5284 682.601 10.9091C682.357 11.2898 681.999 11.5923 681.527 11.8168C681.058 12.0412 680.489 12.1534 679.818 12.1534C679.193 12.1534 678.652 12.0526 678.195 11.8509C677.74 11.6491 677.382 11.3679 677.121 11.0071C676.862 10.6463 676.716 10.2273 676.682 9.75H677.773C677.801 10.0795 677.912 10.3523 678.105 10.5682C678.301 10.7812 678.548 10.9403 678.847 11.0455C679.148 11.1477 679.472 11.1989 679.818 11.1989C680.222 11.1989 680.584 11.1335 680.905 11.0028C681.226 10.8693 681.48 10.6847 681.668 10.4489C681.855 10.2102 681.949 9.93182 681.949 9.61364C681.949 9.32386 681.868 9.08807 681.706 8.90625C681.544 8.72443 681.331 8.5767 681.067 8.46307C680.803 8.34943 680.517 8.25 680.21 8.16477L679.136 7.85795C678.455 7.66193 677.915 7.3821 677.517 7.01847C677.119 6.65483 676.92 6.17898 676.92 5.59091C676.92 5.10227 677.053 4.67614 677.317 4.3125C677.584 3.94602 677.942 3.66193 678.391 3.46023C678.842 3.25568 679.347 3.15341 679.903 3.15341C680.466 3.15341 680.966 3.25426 681.403 3.45597C681.841 3.65483 682.188 3.92756 682.443 4.27415C682.702 4.62074 682.838 5.0142 682.852 5.45455H681.83ZM687.317 12.1364C686.686 12.1364 686.142 11.9972 685.685 11.7188C685.23 11.4375 684.88 11.0455 684.632 10.5426C684.388 10.0369 684.266 9.44886 684.266 8.77841C684.266 8.10795 684.388 7.51705 684.632 7.00568C684.88 6.49148 685.223 6.09091 685.664 5.80398C686.107 5.5142 686.624 5.36932 687.215 5.36932C687.556 5.36932 687.892 5.42614 688.225 5.53977C688.557 5.65341 688.86 5.83807 689.132 6.09375C689.405 6.34659 689.623 6.68182 689.784 7.09943C689.946 7.51705 690.027 8.03125 690.027 8.64205V9.06818H684.982V8.19886H689.005C689.005 7.82955 688.931 7.5 688.783 7.21023C688.638 6.92045 688.431 6.69176 688.161 6.52415C687.894 6.35653 687.578 6.27273 687.215 6.27273C686.814 6.27273 686.468 6.37216 686.175 6.57102C685.885 6.76705 685.662 7.02273 685.506 7.33807C685.35 7.65341 685.272 7.99148 685.272 8.35227V8.93182C685.272 9.42614 685.357 9.84517 685.527 10.1889C685.701 10.5298 685.941 10.7898 686.248 10.9688C686.554 11.1449 686.911 11.233 687.317 11.233C687.581 11.233 687.82 11.196 688.033 11.1222C688.249 11.0455 688.435 10.9318 688.591 10.7812C688.748 10.6278 688.868 10.4375 688.953 10.2102L689.925 10.483C689.823 10.8125 689.651 11.1023 689.409 11.3523C689.168 11.5994 688.87 11.7926 688.515 11.9318C688.159 12.0682 687.76 12.1364 687.317 12.1364ZM691.557 14.4545V5.45455H692.529V6.49432H692.648C692.722 6.38068 692.824 6.2358 692.955 6.05966C693.088 5.88068 693.279 5.72159 693.526 5.58239C693.776 5.44034 694.114 5.36932 694.54 5.36932C695.091 5.36932 695.577 5.5071 695.998 5.78267C696.418 6.05824 696.746 6.44886 696.982 6.95455C697.218 7.46023 697.336 8.05682 697.336 8.74432C697.336 9.4375 697.218 10.0384 696.982 10.5469C696.746 11.0526 696.419 11.4446 696.002 11.723C695.584 11.9986 695.103 12.1364 694.557 12.1364C694.137 12.1364 693.8 12.0668 693.547 11.9276C693.294 11.7855 693.1 11.625 692.963 11.446C692.827 11.2642 692.722 11.1136 692.648 10.9943H692.563V14.4545H691.557ZM692.546 8.72727C692.546 9.22159 692.618 9.65767 692.763 10.0355C692.908 10.4105 693.12 10.7045 693.398 10.9176C693.676 11.1278 694.017 11.233 694.421 11.233C694.841 11.233 695.192 11.1222 695.473 10.9006C695.757 10.6761 695.971 10.375 696.113 9.99716C696.257 9.61648 696.33 9.19318 696.33 8.72727C696.33 8.26705 696.259 7.85227 696.117 7.48295C695.978 7.1108 695.766 6.81676 695.482 6.60085C695.201 6.3821 694.847 6.27273 694.421 6.27273C694.012 6.27273 693.668 6.37642 693.39 6.58381C693.111 6.78835 692.901 7.07528 692.759 7.4446C692.617 7.81108 692.546 8.23864 692.546 8.72727Z" fill="#0E4429"/>
<path d="M744.42 7.63636C744.42 8.55682 744.254 9.35227 743.922 10.0227C743.589 10.6932 743.134 11.2102 742.554 11.5739C741.974 11.9375 741.313 12.1193 740.568 12.1193C739.824 12.1193 739.162 11.9375 738.582 11.5739C738.003 11.2102 737.547 10.6932 737.214 10.0227C736.882 9.35227 736.716 8.55682 736.716 7.63636C736.716 6.71591 736.882 5.92045 737.214 5.25C737.547 4.57955 738.003 4.0625 738.582 3.69886C739.162 3.33523 739.824 3.15341 740.568 3.15341C741.313 3.15341 741.974 3.33523 742.554 3.69886C743.134 4.0625 743.589 4.57955 743.922 5.25C744.254 5.92045 744.42 6.71591 744.42 7.63636ZM743.398 7.63636C743.398 6.88068 743.271 6.2429 743.018 5.72301C742.768 5.20312 742.429 4.80966 742 4.54261C741.574 4.27557 741.097 4.14205 740.568 4.14205C740.04 4.14205 739.561 4.27557 739.132 4.54261C738.706 4.80966 738.366 5.20312 738.114 5.72301C737.864 6.2429 737.739 6.88068 737.739 7.63636C737.739 8.39205 737.864 9.02983 738.114 9.54972C738.366 10.0696 738.706 10.4631 739.132 10.7301C739.561 10.9972 740.04 11.1307 740.568 11.1307C741.097 11.1307 741.574 10.9972 742 10.7301C742.429 10.4631 742.768 10.0696 743.018 9.54972C743.271 9.02983 743.398 8.39205 743.398 7.63636ZM748.72 12.1364C748.107 12.1364 747.578 11.9915 747.135 11.7017C746.692 11.4119 746.351 11.0128 746.112 10.5043C745.874 9.99574 745.754 9.41477 745.754 8.76136C745.754 8.09659 745.876 7.50994 746.121 7.00142C746.368 6.49006 746.712 6.09091 747.152 5.80398C747.595 5.5142 748.112 5.36932 748.703 5.36932C749.163 5.36932 749.578 5.45455 749.947 5.625C750.317 5.79545 750.619 6.03409 750.855 6.34091C751.091 6.64773 751.237 7.00568 751.294 7.41477H750.288C750.212 7.11648 750.041 6.85227 749.777 6.62216C749.516 6.3892 749.163 6.27273 748.72 6.27273C748.328 6.27273 747.984 6.375 747.689 6.57955C747.396 6.78125 747.168 7.06676 747.003 7.43608C746.841 7.80256 746.76 8.23295 746.76 8.72727C746.76 9.23295 746.839 9.6733 746.999 10.0483C747.161 10.4233 747.388 10.7145 747.68 10.9219C747.976 11.1293 748.322 11.233 748.72 11.233C748.982 11.233 749.219 11.1875 749.432 11.0966C749.645 11.0057 749.825 10.875 749.973 10.7045C750.121 10.5341 750.226 10.3295 750.288 10.0909H751.294C751.237 10.4773 751.097 10.8253 750.872 11.1349C750.651 11.4418 750.357 11.6861 749.99 11.8679C749.626 12.0469 749.203 12.1364 748.72 12.1364ZM755.611 5.45455V6.30682H752.219V5.45455H755.611ZM753.207 3.88636H754.213V10.125C754.213 10.4091 754.254 10.6222 754.337 10.7642C754.422 10.9034 754.53 10.9972 754.661 11.0455C754.794 11.0909 754.935 11.1136 755.082 11.1136C755.193 11.1136 755.284 11.108 755.355 11.0966C755.426 11.0824 755.483 11.071 755.526 11.0625L755.73 11.9659C755.662 11.9915 755.567 12.017 755.445 12.0426C755.322 12.071 755.168 12.0852 754.98 12.0852C754.696 12.0852 754.418 12.0241 754.145 11.902C753.875 11.7798 753.651 11.5938 753.472 11.3438C753.295 11.0938 753.207 10.7784 753.207 10.3977V3.88636Z" fill="#0E4429"/>
<path d="M1.05682 36.2727H2.31818L5.28409 43.517H5.38636L8.35227 36.2727H9.61364V45H8.625V38.3693H8.53977L5.8125 45H4.85795L2.13068 38.3693H2.04545V45H1.05682V36.2727ZM14.2553 45.1364C13.6644 45.1364 13.146 44.9957 12.6999 44.7145C12.2567 44.4332 11.9102 44.0398 11.6602 43.5341C11.413 43.0284 11.2894 42.4375 11.2894 41.7614C11.2894 41.0795 11.413 40.4844 11.6602 39.9759C11.9102 39.4673 12.2567 39.0724 12.6999 38.7912C13.146 38.5099 13.6644 38.3693 14.2553 38.3693C14.8462 38.3693 15.3633 38.5099 15.8065 38.7912C16.2525 39.0724 16.5991 39.4673 16.8462 39.9759C17.0962 40.4844 17.2212 41.0795 17.2212 41.7614C17.2212 42.4375 17.0962 43.0284 16.8462 43.5341C16.5991 44.0398 16.2525 44.4332 15.8065 44.7145C15.3633 44.9957 14.8462 45.1364 14.2553 45.1364ZM14.2553 44.233C14.7042 44.233 15.0735 44.1179 15.3633 43.8878C15.6531 43.6577 15.8675 43.3551 16.0067 42.9801C16.146 42.6051 16.2156 42.1989 16.2156 41.7614C16.2156 41.3239 16.146 40.9162 16.0067 40.5384C15.8675 40.1605 15.6531 39.8551 15.3633 39.6222C15.0735 39.3892 14.7042 39.2727 14.2553 39.2727C13.8065 39.2727 13.4371 39.3892 13.1474 39.6222C12.8576 39.8551 12.6431 40.1605 12.5039 40.5384C12.3647 40.9162 12.2951 41.3239 12.2951 41.7614C12.2951 42.1989 12.3647 42.6051 12.5039 42.9801C12.6431 43.3551 12.8576 43.6577 13.1474 43.8878C13.4371 44.1179 13.8065 44.233 14.2553 44.233ZM19.7621 41.0625V45H18.7564V38.4545H19.728V39.4773H19.8132C19.9666 39.1449 20.1996 38.8778 20.5121 38.6761C20.8246 38.4716 21.228 38.3693 21.7223 38.3693C22.1655 38.3693 22.5533 38.4602 22.8857 38.642C23.218 38.821 23.4766 39.0938 23.6612 39.4602C23.8459 39.8239 23.9382 40.2841 23.9382 40.8409V45H22.9325V40.9091C22.9325 40.3949 22.799 39.9943 22.532 39.7074C22.2649 39.4176 21.8984 39.2727 21.4325 39.2727C21.1115 39.2727 20.8246 39.3423 20.5717 39.4815C20.3217 39.6207 20.1243 39.8239 19.9794 40.0909C19.8345 40.358 19.7621 40.6818 19.7621 41.0625Z" fill="#0E4429"/>
<path d="M2.64205 76L0.255682 67.2727H1.32955L3.15341 74.3807H3.23864L5.09659 67.2727H6.28977L8.14773 74.3807H8.23295L10.0568 67.2727H11.1307L8.74432 76H7.65341L5.72727 69.0455H5.65909L3.73295 76H2.64205ZM14.446 76.1364C13.8153 76.1364 13.2713 75.9972 12.8139 75.7188C12.3594 75.4375 12.0085 75.0455 11.7614 74.5426C11.517 74.0369 11.3949 73.4489 11.3949 72.7784C11.3949 72.108 11.517 71.517 11.7614 71.0057C12.0085 70.4915 12.3523 70.0909 12.7926 69.804C13.2358 69.5142 13.7528 69.3693 14.3438 69.3693C14.6847 69.3693 15.0213 69.4261 15.3537 69.5398C15.6861 69.6534 15.9886 69.8381 16.2614 70.0938C16.5341 70.3466 16.7514 70.6818 16.9134 71.0994C17.0753 71.517 17.1562 72.0312 17.1562 72.642V73.0682H12.1108V72.1989H16.1335C16.1335 71.8295 16.0597 71.5 15.9119 71.2102C15.767 70.9205 15.5597 70.6918 15.2898 70.5241C15.0227 70.3565 14.7074 70.2727 14.3438 70.2727C13.9432 70.2727 13.5966 70.3722 13.304 70.571C13.0142 70.767 12.7912 71.0227 12.6349 71.3381C12.4787 71.6534 12.4006 71.9915 12.4006 72.3523V72.9318C12.4006 73.4261 12.4858 73.8452 12.6562 74.1889C12.8295 74.5298 13.0696 74.7898 13.3764 74.9688C13.6832 75.1449 14.0398 75.233 14.446 75.233C14.7102 75.233 14.9489 75.196 15.1619 75.1222C15.3778 75.0455 15.5639 74.9318 15.7202 74.7812C15.8764 74.6278 15.9972 74.4375 16.0824 74.2102L17.054 74.483C16.9517 74.8125 16.7798 75.1023 16.5384 75.3523C16.2969 75.5994 15.9986 75.7926 15.6435 75.9318C15.2884 76.0682 14.8892 76.1364 14.446 76.1364ZM21.1577 76.1364C20.6122 76.1364 20.1307 75.9986 19.7131 75.723C19.2955 75.4446 18.9688 75.0526 18.733 74.5469C18.4972 74.0384 18.3793 73.4375 18.3793 72.7443C18.3793 72.0568 18.4972 71.4602 18.733 70.9545C18.9688 70.4489 19.2969 70.0582 19.7173 69.7827C20.1378 69.5071 20.6236 69.3693 21.1747 69.3693C21.6009 69.3693 21.9375 69.4403 22.1847 69.5824C22.4347 69.7216 22.625 69.8807 22.7557 70.0597C22.8892 70.2358 22.9929 70.3807 23.0668 70.4943H23.152V67.2727H24.1577V76H23.1861V74.9943H23.0668C22.9929 75.1136 22.8878 75.2642 22.7514 75.446C22.6151 75.625 22.4205 75.7855 22.1676 75.9276C21.9148 76.0668 21.5781 76.1364 21.1577 76.1364ZM21.294 75.233C21.6974 75.233 22.0384 75.1278 22.3168 74.9176C22.5952 74.7045 22.8068 74.4105 22.9517 74.0355C23.0966 73.6577 23.169 73.2216 23.169 72.7273C23.169 72.2386 23.098 71.8111 22.956 71.4446C22.8139 71.0753 22.6037 70.7884 22.3253 70.5838C22.0469 70.3764 21.7031 70.2727 21.294 70.2727C20.8679 70.2727 20.5128 70.3821 20.2287 70.6009C19.9474 70.8168 19.7358 71.1108 19.5938 71.483C19.4545 71.8523 19.3849 72.267 19.3849 72.7273C19.3849 73.1932 19.456 73.6165 19.598 73.9972C19.7429 74.375 19.956 74.6761 20.2372 74.9006C20.5213 75.1222 20.8736 75.233 21.294 75.233Z" fill="#0E4429"/>
<path d="M1.05682 105V96.2727H6.28977V97.2102H2.11364V100.159H5.89773V101.097H2.11364V105H1.05682ZM7.89311 105V98.4545H8.8647V99.4432H8.93288C9.0522 99.1193 9.26811 98.8565 9.58061 98.6548C9.89311 98.4531 10.2454 98.3523 10.6374 98.3523C10.7113 98.3523 10.8036 98.3537 10.9144 98.3565C11.0252 98.3594 11.109 98.3636 11.1658 98.3693V99.392C11.1317 99.3835 11.0536 99.3707 10.9315 99.3537C10.8121 99.3338 10.6857 99.3239 10.5522 99.3239C10.234 99.3239 9.94993 99.3906 9.69993 99.5241C9.45277 99.6548 9.25675 99.8366 9.11186 100.07C8.96982 100.3 8.89879 100.562 8.89879 100.858V105H7.89311ZM12.358 105V98.4545H13.3636V105H12.358ZM12.8693 97.3636C12.6733 97.3636 12.5043 97.2969 12.3622 97.1634C12.223 97.0298 12.1534 96.8693 12.1534 96.6818C12.1534 96.4943 12.223 96.3338 12.3622 96.2003C12.5043 96.0668 12.6733 96 12.8693 96C13.0653 96 13.233 96.0668 13.3722 96.2003C13.5142 96.3338 13.5852 96.4943 13.5852 96.6818C13.5852 96.8693 13.5142 97.0298 13.3722 97.1634C13.233 97.2969 13.0653 97.3636 12.8693 97.3636Z" fill="#0E4429"/>
</svg>
